<svg xmlns="http://www.w3.org/2000/svg" width="3464" height="3464" viewBox="0 0 3464 3464" version="1.1"><path d="M 786.500 73.107 C 577.097 84.466, 382.124 182.279, 247.518 343.500 C 169.687 436.721, 115.592 546.665, 89.580 664.500 C 82.489 696.624, 77.021 733.890, 73.807 772 C 72.743 784.621, 72.500 962.844, 72.500 1731.500 C 72.500 2735.595, 72.254 2682.716, 77.114 2725 C 95.986 2889.210, 170.137 3044.626, 286.500 3163.859 C 375.595 3255.151, 486.912 3323.002, 607.454 3359.488 C 656.994 3374.483, 707.124 3384.097, 765.060 3389.713 C 782.622 3391.415, 828.596 3391.500, 1731 3391.500 C 2495.697 3391.500, 2681.298 3391.252, 2693 3390.212 C 2766.743 3383.662, 2831.782 3369.707, 2893.603 3347.168 C 3044.002 3292.336, 3171.987 3192.629, 3262.215 3060 C 3329.002 2961.828, 3372.126 2846.867, 3386.525 2728.615 C 3391.784 2685.424, 3391.381 2760.867, 3391.763 1746 C 3392.016 1073.950, 3391.805 804.586, 3391.014 789.500 C 3381.618 610.347, 3312.448 446.311, 3190.508 314 C 3066.790 179.761, 2894.387 93.764, 2713.500 76.063 C 2701.950 74.933, 2684.175 73.556, 2674 73.004 C 2651.438 71.781, 809.102 71.881, 786.500 73.107 M 1688.500 332.065 C 1623.392 333.927, 1565.496 339.708, 1497.500 351.136 C 1342.407 377.203, 1192.850 429.431, 1055.880 505.357 C 884.365 600.432, 734.861 729.514, 617.335 884 C 534.918 992.335, 468.130 1112.986, 420.460 1239.648 C 347.334 1433.949, 318.673 1643.610, 336.547 1853.500 C 347.162 1978.153, 375.508 2104.170, 419.211 2221 C 452.126 2308.989, 495.615 2396.989, 545.110 2475.756 C 657.210 2654.154, 807.363 2804.445, 987.304 2918.357 C 1036.674 2949.611, 1111.904 2989.665, 1167 3014.030 C 1249.659 3050.584, 1346.967 3082.227, 1434 3100.854 C 1574.524 3130.930, 1717.667 3139.730, 1858.500 3126.954 C 2010.282 3113.184, 2156.560 3075.614, 2295 3014.844 C 2350.063 2990.673, 2423.746 2951.626, 2474.500 2919.721 C 2644.185 2813.054, 2788.128 2672.927, 2898.463 2507 C 2932.599 2455.663, 2955.085 2416.956, 2982.986 2361.500 C 3032.405 2263.277, 3065.278 2174.793, 3091.995 2068.086 C 3125.922 1932.583, 3139.222 1779.939, 3129.511 1637.500 C 3114.009 1410.125, 3045.206 1194.349, 2926.237 1000 C 2912.186 977.047, 2882.165 932.228, 2865.838 909.831 C 2781.428 794.038, 2683.412 694.816, 2568.500 608.835 C 2499.254 557.023, 2432.330 516.055, 2351.500 475.997 C 2313.802 457.314, 2303.002 452.373, 2268.500 438.027 C 2138.106 383.808, 2002.315 350.330, 1859 337.068 C 1827.914 334.192, 1808.834 333.100, 1770.500 332.006 C 1733.517 330.950, 1727.346 330.954, 1688.500 332.065 M 1277 894.998 C 1247.425 897.627, 1228.739 900.275, 1217.032 903.496 C 1214.025 904.323, 1210.200 905.003, 1208.532 905.006 C 1206.864 905.009, 1201.282 906.359, 1196.127 908.006 C 1190.973 909.653, 1185.896 911, 1184.847 911 C 1183.798 911, 1180.325 912.100, 1177.130 913.445 C 1173.935 914.790, 1169.111 916.409, 1166.410 917.042 C 1163.710 917.675, 1159.700 919.003, 1157.500 919.993 C 1150.906 922.962, 1142.912 926.104, 1135.603 928.600 C 1131.810 929.895, 1127.985 931.587, 1127.103 932.359 C 1126.222 933.132, 1124.407 934.098, 1123.070 934.506 C 1119.210 935.686, 1096.051 948.029, 1083.424 955.635 C 1069.377 964.098, 1057.772 972.148, 1049 979.515 C 1044.325 983.442, 1037.575 988.832, 1034 991.493 C 1022.143 1000.319, 994.807 1027.882, 983 1042.915 C 979.425 1047.467, 974.757 1053.142, 972.626 1055.525 C 967.893 1060.820, 953.443 1082.028, 952.462 1085.120 C 952.071 1086.352, 949.636 1090.091, 947.050 1093.430 C 944.465 1096.768, 941.738 1101.075, 940.990 1103 C 940.243 1104.925, 938.589 1108.067, 937.316 1109.982 C 936.042 1111.897, 935 1113.947, 935 1114.536 C 935 1115.126, 933.650 1117.737, 932 1120.339 C 930.350 1122.941, 929 1125.641, 929 1126.339 C 929 1127.037, 927.699 1129.659, 926.110 1132.166 C 924.520 1134.672, 922.895 1138.201, 922.498 1140.008 C 922.102 1141.814, 920.477 1146.039, 918.889 1149.396 C 917.301 1152.753, 916.001 1156.306, 916.001 1157.290 C 916 1158.275, 915.116 1160.300, 914.036 1161.790 C 912.956 1163.281, 911.546 1166.750, 910.902 1169.500 C 910.259 1172.250, 908.667 1177.034, 907.364 1180.131 C 906.060 1183.229, 904.713 1187.954, 904.368 1190.631 C 904.024 1193.309, 902.962 1196.850, 902.008 1198.500 C 900.463 1201.172, 899.309 1206.901, 897.512 1220.820 C 897.205 1223.197, 896.230 1226.246, 895.345 1227.596 C 894.238 1229.286, 893.459 1234.013, 892.846 1242.775 C 891.827 1257.328, 890.705 1265.171, 888.527 1272.968 C 886.613 1279.823, 886.273 1337.041, 888.119 1341.685 C 889.946 1346.278, 891.998 1358.094, 891.999 1364.026 C 892.001 1373.293, 893.902 1385.385, 896.006 1389.512 C 897.103 1391.663, 898 1395.378, 898 1397.769 C 898 1403.301, 899.831 1410.645, 902.171 1414.500 C 903.173 1416.150, 904.005 1419.300, 904.020 1421.500 C 904.035 1423.700, 905.202 1428.200, 906.612 1431.500 C 908.023 1434.800, 909.576 1439.426, 910.064 1441.780 C 910.552 1444.134, 912.087 1447.998, 913.475 1450.368 C 914.864 1452.737, 916 1455.536, 916.001 1456.588 C 916.001 1457.640, 917.301 1461.247, 918.889 1464.604 C 920.477 1467.961, 922.110 1472.236, 922.518 1474.104 C 922.925 1475.972, 924.288 1478.727, 925.545 1480.226 C 926.802 1481.725, 928.151 1484.413, 928.544 1486.199 C 929.447 1490.314, 934.422 1500.152, 937.419 1503.749 C 938.679 1505.262, 940.242 1508.133, 940.893 1510.129 C 941.543 1512.125, 942.958 1514.557, 944.038 1515.534 C 945.117 1516.511, 946 1517.640, 946 1518.044 C 946 1519.285, 953.611 1531.880, 956.383 1535.226 C 957.822 1536.964, 959 1538.760, 959 1539.217 C 959 1540.618, 965.926 1550.226, 970.597 1555.306 C 973.027 1557.949, 975.869 1561.774, 976.911 1563.806 C 977.953 1565.838, 981.142 1570.200, 983.996 1573.500 C 992.469 1583.294, 1367.169 1958.142, 1373.599 1963.257 C 1402.820 1986.498, 1410.258 1992, 1412.457 1992 C 1413.135 1992, 1414.547 1992.964, 1415.595 1994.141 C 1416.643 1995.319, 1419.075 1997.018, 1421 1997.916 C 1425.241 1999.896, 1432.763 2004.604, 1435.500 2006.992 C 1436.600 2007.952, 1438.850 2009.054, 1440.500 2009.440 C 1442.150 2009.826, 1444.625 2011.194, 1446 2012.478 C 1447.375 2013.763, 1450.075 2015.240, 1452 2015.761 C 1453.925 2016.283, 1457.250 2017.900, 1459.390 2019.355 C 1461.529 2020.810, 1464.120 2022, 1465.148 2022 C 1466.176 2022, 1468.881 2023.350, 1471.159 2025 C 1473.436 2026.650, 1476.249 2028, 1477.408 2028 C 1478.567 2028, 1481.608 2029.114, 1484.165 2030.475 C 1486.722 2031.836, 1490.986 2033.437, 1493.641 2034.032 C 1496.296 2034.627, 1499.220 2035.795, 1500.141 2036.627 C 1501.061 2037.460, 1504.423 2038.823, 1507.614 2039.656 C 1510.804 2040.489, 1515.013 2041.986, 1516.967 2042.983 C 1518.922 2043.980, 1523.216 2045.117, 1526.510 2045.508 C 1529.805 2045.900, 1535.221 2047.290, 1538.546 2048.597 C 1541.919 2049.923, 1548.580 2051.387, 1553.612 2051.907 C 1559.357 2052.502, 1564.129 2053.620, 1566.753 2054.988 C 1570.162 2056.765, 1573.607 2057.291, 1586.687 2058.034 C 1596.664 2058.600, 1604.530 2059.577, 1608 2060.681 C 1612.689 2062.173, 1617.628 2062.434, 1641.500 2062.450 C 1665.980 2062.466, 1670.946 2062.198, 1681 2060.316 C 1687.325 2059.133, 1697.833 2057.881, 1704.352 2057.535 C 1713.160 2057.068, 1717.793 2056.308, 1722.396 2054.575 C 1725.802 2053.293, 1731.874 2051.914, 1735.888 2051.511 C 1739.902 2051.108, 1745.810 2049.750, 1749.016 2048.494 C 1752.223 2047.237, 1757.243 2045.890, 1760.173 2045.500 C 1763.103 2045.110, 1766.884 2043.949, 1768.576 2042.921 C 1770.268 2041.893, 1774.768 2040.331, 1778.576 2039.449 C 1782.384 2038.568, 1786.175 2037.259, 1787 2036.540 C 1787.825 2035.821, 1791.150 2034.475, 1794.390 2033.548 C 1797.629 2032.621, 1801.229 2031.258, 1802.390 2030.519 C 1803.550 2029.780, 1809.675 2027.059, 1816 2024.472 C 1837.441 2015.701, 1861.606 2004.020, 1873.239 1996.802 C 1877.496 1994.161, 1881.180 1992, 1881.426 1992 C 1881.836 1992, 1888.457 1987.583, 1900 1979.609 C 1918.283 1966.978, 1949.548 1937.266, 1965.354 1917.500 C 1983.347 1894.999, 2002.889 1862.729, 2011.982 1840.500 C 2012.432 1839.400, 2013.679 1836.475, 2014.753 1834 C 2015.827 1831.525, 2018.636 1823.650, 2020.996 1816.500 C 2023.355 1809.350, 2025.637 1802.600, 2026.067 1801.500 C 2026.498 1800.400, 2027.134 1798.150, 2027.481 1796.500 C 2027.829 1794.850, 2028.790 1790.575, 2029.618 1787 C 2033.287 1771.158, 2037 1749.963, 2037 1744.866 L 2037 1740.931 2040.106 1744.216 C 2041.814 1746.022, 2095.527 1799.925, 2159.468 1864 C 2233.643 1938.330, 2276.991 1982.491, 2279.224 1986 C 2281.148 1989.025, 2283.557 1992.963, 2284.577 1994.750 C 2285.597 1996.538, 2286.809 1998, 2287.272 1998 C 2287.734 1998, 2289.057 2000.137, 2290.213 2002.750 C 2292.451 2007.814, 2294.823 2011.497, 2299.250 2016.785 C 2300.898 2018.753, 2302 2021.262, 2302 2023.046 C 2302 2026.046, 2305.477 2034.559, 2307.116 2035.572 C 2307.602 2035.872, 2308 2037.329, 2308.001 2038.809 C 2308.001 2040.289, 2309.325 2044.297, 2310.942 2047.716 C 2313.045 2052.161, 2314.182 2056.613, 2314.933 2063.349 C 2315.510 2068.528, 2316.881 2075.631, 2317.978 2079.133 C 2319.773 2084.857, 2319.976 2088.336, 2319.987 2113.575 C 2319.999 2140.401, 2319.896 2141.958, 2317.657 2148.575 C 2316.368 2152.384, 2315.030 2158.909, 2314.684 2163.075 C 2314.250 2168.308, 2313.304 2172.017, 2311.624 2175.075 C 2310.287 2177.509, 2308.876 2181.470, 2308.487 2183.879 C 2308.099 2186.287, 2306.968 2189.662, 2305.975 2191.379 C 2304.981 2193.095, 2303.506 2196.773, 2302.697 2199.552 C 2301.337 2204.221, 2296.442 2213.394, 2293.359 2217.050 C 2292.641 2217.902, 2291.370 2220.534, 2290.536 2222.899 C 2289.701 2225.264, 2288.146 2228.167, 2287.079 2229.349 C 2283.177 2233.675, 2279.384 2238.637, 2275.497 2244.500 C 2269.920 2252.912, 2246.036 2276.634, 2236.633 2283.099 C 2222.874 2292.560, 2220.674 2293.949, 2212 2298.655 C 2207.325 2301.191, 2201.925 2304.283, 2200 2305.526 C 2198.075 2306.768, 2194.888 2308.293, 2192.918 2308.915 C 2190.948 2309.536, 2187.591 2310.934, 2185.457 2312.022 C 2183.323 2313.110, 2180.749 2314, 2179.738 2314 C 2178.726 2314, 2174.434 2315.304, 2170.199 2316.899 C 2165.965 2318.493, 2158 2320.582, 2152.500 2321.542 C 2147 2322.501, 2140.700 2323.969, 2138.500 2324.803 C 2132.339 2327.140, 2083.053 2327.101, 2074 2324.752 C 2070.425 2323.824, 2062.640 2322.150, 2056.701 2321.033 C 2050.762 2319.915, 2044.687 2318.375, 2043.201 2317.611 C 2041.715 2316.847, 2037.575 2315.310, 2034 2314.195 C 2019.932 2309.807, 1998.822 2299.096, 1986.881 2290.287 C 1983.922 2288.103, 1980.307 2285.683, 1978.848 2284.909 C 1973.045 2281.827, 1961.441 2270.610, 1883.334 2192.583 C 1805.051 2114.380, 1802.025 2111.489, 1798.151 2111.196 C 1795.664 2111.007, 1792.679 2111.616, 1790.316 2112.793 C 1788.217 2113.840, 1783.575 2115.283, 1780 2116.001 C 1776.425 2116.719, 1771.475 2118.079, 1769 2119.023 C 1766.525 2119.967, 1761.432 2121.266, 1757.683 2121.910 C 1753.934 2122.555, 1748.553 2123.994, 1745.725 2125.108 C 1742.897 2126.223, 1736.515 2127.527, 1731.542 2128.007 C 1726.569 2128.486, 1715.075 2130.055, 1706 2131.493 C 1689.990 2134.030, 1688.104 2134.110, 1642.500 2134.188 C 1593.812 2134.271, 1589.972 2134.035, 1566.500 2129.503 C 1562.650 2128.760, 1557.025 2127.876, 1554 2127.539 C 1550.975 2127.203, 1546.346 2126.227, 1543.713 2125.371 C 1539.100 2123.871, 1536 2124.031, 1536 2125.768 C 1536 2126.560, 1824.102 2414.992, 1834.500 2424.609 C 1840.865 2430.496, 1849.375 2437, 1850.714 2437 C 1851.281 2437, 1854.444 2439.476, 1857.742 2442.503 C 1863.774 2448.039, 1874.753 2455.993, 1876.368 2455.998 C 1876.845 2455.999, 1878.774 2457.350, 1880.653 2459 C 1882.532 2460.650, 1884.511 2462, 1885.050 2462 C 1886.077 2462, 1897.109 2468.973, 1898.034 2470.207 C 1898.328 2470.598, 1901.099 2472.038, 1904.192 2473.406 C 1907.285 2474.774, 1910.116 2476.379, 1910.483 2476.973 C 1911.347 2478.370, 1927.239 2486, 1929.285 2486 C 1930.144 2486, 1932.139 2487.087, 1933.718 2488.416 C 1935.297 2489.745, 1938.369 2491.159, 1940.545 2491.559 C 1942.720 2491.958, 1946.926 2493.571, 1949.891 2495.143 C 1952.856 2496.714, 1956.127 2498, 1957.160 2498 C 1958.193 2498, 1961.568 2499.350, 1964.660 2501 C 1967.752 2502.650, 1971.456 2504.004, 1972.891 2504.010 C 1974.326 2504.015, 1977.975 2505.173, 1981 2506.583 C 1984.025 2507.993, 1988.750 2509.375, 1991.500 2509.654 C 1994.250 2509.933, 1999.095 2511.278, 2002.266 2512.644 C 2005.707 2514.125, 2011.417 2515.476, 2016.429 2515.993 C 2021.048 2516.469, 2026.119 2517.527, 2027.698 2518.344 C 2031.641 2520.383, 2035.168 2520.897, 2052.500 2521.961 C 2062.261 2522.560, 2069.072 2523.481, 2072 2524.599 C 2078.593 2527.115, 2130.090 2527.175, 2140.500 2524.678 C 2144.350 2523.755, 2155.150 2522.349, 2164.500 2521.553 C 2174.112 2520.736, 2183.072 2519.450, 2185.118 2518.595 C 2187.108 2517.764, 2193.408 2516.342, 2199.118 2515.435 C 2204.828 2514.529, 2210.688 2513.174, 2212.139 2512.425 C 2213.591 2511.676, 2218.316 2510.341, 2222.639 2509.458 C 2226.963 2508.575, 2231.533 2507.187, 2232.795 2506.374 C 2234.057 2505.561, 2238.508 2504.021, 2242.687 2502.952 C 2246.865 2501.884, 2250.831 2500.555, 2251.500 2500 C 2252.168 2499.446, 2255.142 2498.142, 2258.108 2497.103 C 2267.534 2493.802, 2297.213 2480.508, 2303 2476.994 C 2303.825 2476.493, 2309.140 2473.252, 2314.811 2469.791 C 2320.482 2466.331, 2326.782 2462.630, 2328.811 2461.568 C 2332.106 2459.842, 2339.332 2454.836, 2353 2444.813 C 2355.475 2442.998, 2361.550 2438.135, 2366.500 2434.006 C 2371.450 2429.878, 2377.750 2424.733, 2380.500 2422.573 C 2386.708 2417.697, 2413.709 2390.602, 2417.582 2385.362 C 2419.152 2383.238, 2421.576 2380.134, 2422.968 2378.464 C 2424.361 2376.795, 2426.850 2373.689, 2428.500 2371.561 C 2430.150 2369.434, 2433.804 2364.950, 2436.620 2361.597 C 2439.436 2358.244, 2442.477 2354.150, 2443.379 2352.500 C 2444.280 2350.850, 2447.288 2346.350, 2450.063 2342.500 C 2452.837 2338.650, 2457.358 2331.450, 2460.109 2326.500 C 2462.859 2321.550, 2466.195 2315.700, 2467.521 2313.500 C 2468.846 2311.300, 2471.585 2306.125, 2473.606 2302 C 2475.627 2297.875, 2478.617 2291.800, 2480.250 2288.500 C 2481.884 2285.200, 2484.258 2279.800, 2485.527 2276.500 C 2488.400 2269.023, 2492.734 2258.307, 2494.222 2255 C 2494.841 2253.625, 2496.125 2249.800, 2497.077 2246.500 C 2498.028 2243.200, 2499.723 2237.800, 2500.843 2234.500 C 2501.962 2231.200, 2503.375 2226.475, 2503.981 2224 C 2504.588 2221.525, 2505.756 2217.250, 2506.576 2214.500 C 2507.396 2211.750, 2508.711 2205.675, 2509.499 2201 C 2510.286 2196.325, 2511.796 2188.427, 2512.854 2183.449 C 2513.912 2178.471, 2515.088 2169.021, 2515.466 2162.449 C 2515.845 2155.877, 2516.795 2145.113, 2517.577 2138.530 C 2519.488 2122.454, 2519.371 2110.215, 2517.018 2079.973 C 2514.189 2043.616, 2513.207 2037.771, 2503.923 2002 C 2503.281 1999.525, 2501.496 1993.900, 2499.957 1989.500 C 2498.418 1985.100, 2496.843 1979.925, 2496.457 1978 C 2496.071 1976.075, 2494.973 1972.925, 2494.015 1971 C 2493.058 1969.075, 2491.484 1965.087, 2490.519 1962.137 C 2489.554 1959.188, 2488.145 1955.588, 2487.388 1954.137 C 2486.632 1952.687, 2486.010 1951.139, 2486.006 1950.699 C 2486.001 1950.021, 2479.252 1935.587, 2473.056 1923 C 2466.682 1910.054, 2450.171 1882.816, 2443.051 1873.500 C 2440.528 1870.200, 2437.659 1866.238, 2436.674 1864.696 C 2428.910 1852.539, 2403.061 1825.875, 2266.086 1688.731 C 2064.384 1486.780, 2048.427 1470.938, 2032 1456.338 C 2011.813 1438.396, 1967.330 1410.076, 1939 1397.128 C 1925.402 1390.914, 1916.211 1387, 1915.214 1387 C 1914.645 1387, 1911.327 1385.650, 1907.840 1384.001 C 1904.353 1382.351, 1900.463 1381.001, 1899.195 1381.001 C 1897.928 1381, 1893.841 1379.702, 1890.114 1378.116 C 1886.387 1376.530, 1881.349 1374.920, 1878.919 1374.538 C 1876.489 1374.155, 1872.197 1373.007, 1869.383 1371.985 C 1866.568 1370.963, 1860.718 1369.449, 1856.383 1368.620 C 1852.047 1367.791, 1845.575 1366.445, 1842 1365.629 C 1838.425 1364.813, 1828.525 1363.416, 1820 1362.526 C 1811.475 1361.635, 1799.414 1360.252, 1793.199 1359.453 C 1778.293 1357.536, 1746.520 1357.547, 1734.044 1359.473 C 1728.795 1360.283, 1717.750 1361.645, 1709.500 1362.500 C 1701.250 1363.354, 1691.350 1364.900, 1687.500 1365.935 C 1683.650 1366.970, 1677.165 1368.319, 1673.089 1368.933 C 1669.013 1369.547, 1663.781 1370.888, 1661.462 1371.914 C 1659.144 1372.939, 1654.829 1374.100, 1651.873 1374.492 C 1648.918 1374.885, 1643.500 1376.510, 1639.832 1378.103 C 1636.165 1379.696, 1632.218 1381, 1631.060 1381 C 1629.903 1381, 1625.979 1382.350, 1622.340 1384 C 1618.701 1385.650, 1615.071 1387, 1614.273 1387 C 1613.476 1387, 1609.907 1388.350, 1606.342 1390 C 1602.777 1391.650, 1599.374 1393, 1598.780 1393 C 1598.186 1393, 1595.405 1394.109, 1592.600 1395.465 C 1589.795 1396.821, 1584.125 1399.352, 1580 1401.089 C 1571.041 1404.862, 1550.011 1415.298, 1541.154 1420.368 C 1537.664 1422.366, 1534.626 1424, 1534.403 1424 C 1533.250 1424, 1503.208 1444.960, 1495 1451.491 C 1475.806 1466.763, 1455.346 1487.570, 1440.417 1507 C 1435.399 1513.531, 1433.446 1516.340, 1424.831 1529.414 C 1422.263 1533.311, 1419.675 1537.044, 1419.081 1537.708 C 1418.486 1538.372, 1418 1539.169, 1418 1539.478 C 1418 1539.787, 1416.895 1541.791, 1415.543 1543.931 C 1410.518 1551.892, 1392 1589.693, 1392 1591.990 C 1392 1593.119, 1389.262 1601.691, 1388.004 1604.500 C 1386.922 1606.914, 1383.620 1618.564, 1380.916 1629.500 C 1379.829 1633.900, 1378.513 1639.075, 1377.993 1641 C 1377.090 1644.340, 1376.017 1650.697, 1373.939 1665 C 1373.419 1668.575, 1372.658 1673.413, 1372.247 1675.751 L 1371.500 1680.001 1256.353 1564.751 C 1193.023 1501.363, 1138.891 1447.025, 1136.062 1444 C 1133.232 1440.975, 1129.976 1436.714, 1128.827 1434.532 C 1127.677 1432.349, 1124.546 1427.670, 1121.868 1424.133 C 1119.191 1420.596, 1117 1417.356, 1117 1416.933 C 1117 1416.511, 1115.044 1412.857, 1112.653 1408.813 C 1105.317 1396.404, 1096.268 1372.452, 1093.013 1356.826 C 1091.904 1351.505, 1090.245 1344.305, 1089.326 1340.826 C 1087.954 1335.631, 1087.657 1329.495, 1087.664 1306.496 C 1087.673 1280.507, 1087.829 1278.024, 1089.829 1271.996 C 1091.015 1268.423, 1092.650 1261.050, 1093.464 1255.610 C 1094.277 1250.171, 1095.593 1244.996, 1096.387 1244.110 C 1097.181 1243.225, 1098.582 1239.575, 1099.499 1236 C 1100.417 1232.425, 1101.975 1228.150, 1102.963 1226.500 C 1103.950 1224.850, 1105.319 1221.700, 1106.005 1219.500 C 1106.691 1217.300, 1107.825 1214.825, 1108.524 1214 C 1109.224 1213.175, 1112.115 1208.062, 1114.949 1202.639 C 1117.783 1197.215, 1121.991 1190.285, 1124.301 1187.238 C 1126.610 1184.191, 1130.550 1178.729, 1133.056 1175.099 C 1140.678 1164.059, 1169.697 1136, 1173.492 1136 C 1173.891 1136, 1176.980 1133.809, 1180.358 1131.130 C 1183.736 1128.452, 1188.750 1125.052, 1191.500 1123.574 C 1194.250 1122.097, 1199.635 1119.097, 1203.466 1116.909 C 1207.297 1114.720, 1211.572 1112.669, 1212.966 1112.350 C 1214.360 1112.031, 1217.750 1110.536, 1220.500 1109.028 C 1223.250 1107.520, 1227.744 1105.953, 1230.487 1105.546 C 1233.230 1105.139, 1237.280 1103.749, 1239.487 1102.456 C 1242.125 1100.911, 1245.898 1099.881, 1250.500 1099.450 C 1254.350 1099.090, 1261.011 1097.716, 1265.302 1096.398 C 1272.721 1094.117, 1274.434 1094, 1300.302 1094.001 C 1325.884 1094.001, 1328.035 1094.145, 1336.500 1096.411 C 1341.450 1097.737, 1348.650 1099.127, 1352.500 1099.502 C 1356.743 1099.915, 1362.126 1101.328, 1366.168 1103.091 C 1369.835 1104.691, 1373.781 1106, 1374.937 1106 C 1376.094 1106, 1378.849 1107.142, 1381.060 1108.538 C 1383.271 1109.933, 1387.078 1111.449, 1389.522 1111.905 C 1391.965 1112.362, 1395.434 1113.845, 1397.232 1115.201 C 1399.029 1116.557, 1403.650 1119.397, 1407.500 1121.513 C 1411.350 1123.628, 1415.911 1126.515, 1417.635 1127.929 C 1419.359 1129.343, 1423.312 1132.030, 1426.420 1133.900 C 1433.595 1138.217, 1446.206 1150.421, 1533.722 1237.750 C 1572.994 1276.938, 1605.885 1309.046, 1606.813 1309.101 C 1611.439 1309.379, 1615.799 1308.634, 1618.979 1307.024 C 1620.915 1306.042, 1624.525 1304.915, 1627 1304.519 C 1629.475 1304.122, 1634.200 1302.753, 1637.500 1301.475 C 1640.800 1300.198, 1646.801 1298.658, 1650.836 1298.054 C 1654.870 1297.450, 1659.820 1296.255, 1661.836 1295.399 C 1663.851 1294.543, 1671.125 1293.187, 1678 1292.385 C 1684.875 1291.584, 1695.450 1289.931, 1701.500 1288.714 C 1712.060 1286.589, 1714.601 1286.503, 1765 1286.587 C 1810.259 1286.662, 1818.466 1286.904, 1824.500 1288.336 C 1828.350 1289.251, 1837.350 1290.689, 1844.500 1291.533 C 1851.650 1292.377, 1860.284 1293.953, 1863.687 1295.034 C 1871.064 1297.378, 1872 1297.439, 1872 1295.580 C 1872 1294.800, 1857.713 1279.971, 1840.250 1262.628 C 1822.787 1245.284, 1769.575 1192.137, 1722 1144.523 C 1577.742 1000.146, 1573.678 996.154, 1561.500 986.881 C 1558.750 984.787, 1554.700 981.682, 1552.500 979.980 C 1542.799 972.478, 1539.876 970.391, 1529.500 963.551 C 1507.364 948.959, 1501.584 945.757, 1473 932.252 C 1458.833 925.559, 1456.397 924.525, 1450 922.489 C 1446.975 921.526, 1443.375 920.190, 1442 919.520 C 1437.821 917.484, 1423.837 912.805, 1418 911.490 C 1414.975 910.808, 1408.912 909.069, 1404.528 907.625 C 1400.143 906.181, 1395.311 905, 1393.790 905 C 1392.269 905, 1386.632 903.855, 1381.263 902.455 C 1375.893 901.055, 1366.550 899.463, 1360.500 898.917 C 1354.450 898.372, 1348.150 897.469, 1346.500 896.911 C 1339.395 894.508, 1295.960 893.312, 1277 894.998 M 1702.982 1458.250 C 1702.944 1469.016, 1698.247 1495.896, 1693.486 1512.593 C 1679.786 1560.640, 1650.218 1608.391, 1614.500 1640.151 C 1569.368 1680.282, 1515.304 1704.522, 1458.328 1710.174 C 1451.547 1710.847, 1446 1711.696, 1446 1712.061 C 1446 1712.427, 1450.838 1713.259, 1456.750 1713.910 C 1552.235 1724.429, 1632.953 1780.546, 1675.515 1866 C 1689.997 1895.077, 1700.339 1931.542, 1702.658 1961.706 C 1703.011 1966.305, 1703.683 1970.304, 1704.150 1970.593 C 1704.618 1970.882, 1705 1970.751, 1705 1970.303 C 1705 1966.801, 1708.317 1942.435, 1709.919 1934.173 C 1725.542 1853.577, 1779.234 1781.760, 1852 1744.127 C 1883.786 1727.689, 1920.460 1716.910, 1956.250 1713.486 C 1959.963 1713.131, 1963 1712.493, 1963 1712.069 C 1963 1711.644, 1959.287 1711.026, 1954.750 1710.695 C 1943.816 1709.897, 1925.206 1706.639, 1910.970 1703.030 C 1826.089 1681.518, 1755.923 1619.599, 1723.577 1537.663 C 1714.837 1515.524, 1708.495 1489.337, 1705.918 1464.750 C 1704.647 1452.622, 1703.014 1449.008, 1702.982 1458.250" stroke="none" fill="#fbfbfb" fill-rule="evenodd"/><path d="M 1688.500 332.065 C 1623.392 333.927, 1565.496 339.708, 1497.500 351.136 C 1342.407 377.203, 1192.850 429.431, 1055.880 505.357 C 884.365 600.432, 734.861 729.514, 617.335 884 C 534.918 992.335, 468.130 1112.986, 420.460 1239.648 C 347.334 1433.949, 318.673 1643.610, 336.547 1853.500 C 347.162 1978.153, 375.508 2104.170, 419.211 2221 C 452.126 2308.989, 495.615 2396.989, 545.110 2475.756 C 657.210 2654.154, 807.363 2804.445, 987.304 2918.357 C 1036.674 2949.611, 1111.904 2989.665, 1167 3014.030 C 1249.659 3050.584, 1346.967 3082.227, 1434 3100.854 C 1574.524 3130.930, 1717.667 3139.730, 1858.500 3126.954 C 2010.282 3113.184, 2156.560 3075.614, 2295 3014.844 C 2350.063 2990.673, 2423.746 2951.626, 2474.500 2919.721 C 2644.185 2813.054, 2788.128 2672.927, 2898.463 2507 C 2932.599 2455.663, 2955.085 2416.956, 2982.986 2361.500 C 3032.405 2263.277, 3065.278 2174.793, 3091.995 2068.086 C 3125.922 1932.583, 3139.222 1779.939, 3129.511 1637.500 C 3114.009 1410.125, 3045.206 1194.349, 2926.237 1000 C 2912.186 977.047, 2882.165 932.228, 2865.838 909.831 C 2781.428 794.038, 2683.412 694.816, 2568.500 608.835 C 2499.254 557.023, 2432.330 516.055, 2351.500 475.997 C 2313.802 457.314, 2303.002 452.373, 2268.500 438.027 C 2138.106 383.808, 2002.315 350.330, 1859 337.068 C 1827.914 334.192, 1808.834 333.100, 1770.500 332.006 C 1733.517 330.950, 1727.346 330.954, 1688.500 332.065 M 1277 894.998 C 1247.425 897.627, 1228.739 900.275, 1217.032 903.496 C 1214.025 904.323, 1210.200 905.003, 1208.532 905.006 C 1206.864 905.009, 1201.282 906.359, 1196.127 908.006 C 1190.973 909.653, 1185.896 911, 1184.847 911 C 1183.798 911, 1180.325 912.100, 1177.130 913.445 C 1173.935 914.790, 1169.111 916.409, 1166.410 917.042 C 1163.710 917.675, 1159.700 919.003, 1157.500 919.993 C 1150.906 922.962, 1142.912 926.104, 1135.603 928.600 C 1131.810 929.895, 1127.985 931.587, 1127.103 932.359 C 1126.222 933.132, 1124.407 934.098, 1123.070 934.506 C 1119.210 935.686, 1096.051 948.029, 1083.424 955.635 C 1069.377 964.098, 1057.772 972.148, 1049 979.515 C 1044.325 983.442, 1037.575 988.832, 1034 991.493 C 1022.143 1000.319, 994.807 1027.882, 983 1042.915 C 979.425 1047.467, 974.757 1053.142, 972.626 1055.525 C 967.893 1060.820, 953.443 1082.028, 952.462 1085.120 C 952.071 1086.352, 949.636 1090.091, 947.050 1093.430 C 944.465 1096.768, 941.738 1101.075, 940.990 1103 C 940.243 1104.925, 938.589 1108.067, 937.316 1109.982 C 936.042 1111.897, 935 1113.947, 935 1114.536 C 935 1115.126, 933.650 1117.737, 932 1120.339 C 930.350 1122.941, 929 1125.641, 929 1126.339 C 929 1127.037, 927.699 1129.659, 926.110 1132.166 C 924.520 1134.672, 922.895 1138.201, 922.498 1140.008 C 922.102 1141.814, 920.477 1146.039, 918.889 1149.396 C 917.301 1152.753, 916.001 1156.306, 916.001 1157.290 C 916 1158.275, 915.116 1160.300, 914.036 1161.790 C 912.956 1163.281, 911.546 1166.750, 910.902 1169.500 C 910.259 1172.250, 908.667 1177.034, 907.364 1180.131 C 906.060 1183.229, 904.713 1187.954, 904.368 1190.631 C 904.024 1193.309, 902.962 1196.850, 902.008 1198.500 C 900.463 1201.172, 899.309 1206.901, 897.512 1220.820 C 897.205 1223.197, 896.230 1226.246, 895.345 1227.596 C 894.238 1229.286, 893.459 1234.013, 892.846 1242.775 C 891.827 1257.328, 890.705 1265.171, 888.527 1272.968 C 886.613 1279.823, 886.273 1337.041, 888.119 1341.685 C 889.946 1346.278, 891.998 1358.094, 891.999 1364.026 C 892.001 1373.293, 893.902 1385.385, 896.006 1389.512 C 897.103 1391.663, 898 1395.378, 898 1397.769 C 898 1403.301, 899.831 1410.645, 902.171 1414.500 C 903.173 1416.150, 904.005 1419.300, 904.020 1421.500 C 904.035 1423.700, 905.202 1428.200, 906.612 1431.500 C 908.023 1434.800, 909.576 1439.426, 910.064 1441.780 C 910.552 1444.134, 912.087 1447.998, 913.475 1450.368 C 914.864 1452.737, 916 1455.536, 916.001 1456.588 C 916.001 1457.640, 917.301 1461.247, 918.889 1464.604 C 920.477 1467.961, 922.110 1472.236, 922.518 1474.104 C 922.925 1475.972, 924.288 1478.727, 925.545 1480.226 C 926.802 1481.725, 928.151 1484.413, 928.544 1486.199 C 929.447 1490.314, 934.422 1500.152, 937.419 1503.749 C 938.679 1505.262, 940.242 1508.133, 940.893 1510.129 C 941.543 1512.125, 942.958 1514.557, 944.038 1515.534 C 945.117 1516.511, 946 1517.640, 946 1518.044 C 946 1519.285, 953.611 1531.880, 956.383 1535.226 C 957.822 1536.964, 959 1538.760, 959 1539.217 C 959 1540.618, 965.926 1550.226, 970.597 1555.306 C 973.027 1557.949, 975.869 1561.774, 976.911 1563.806 C 977.953 1565.838, 981.142 1570.200, 983.996 1573.500 C 992.469 1583.294, 1367.169 1958.142, 1373.599 1963.257 C 1402.820 1986.498, 1410.258 1992, 1412.457 1992 C 1413.135 1992, 1414.547 1992.964, 1415.595 1994.141 C 1416.643 1995.319, 1419.075 1997.018, 1421 1997.916 C 1425.241 1999.896, 1432.763 2004.604, 1435.500 2006.992 C 1436.600 2007.952, 1438.850 2009.054, 1440.500 2009.440 C 1442.150 2009.826, 1444.625 2011.194, 1446 2012.478 C 1447.375 2013.763, 1450.075 2015.240, 1452 2015.761 C 1453.925 2016.283, 1457.250 2017.900, 1459.390 2019.355 C 1461.529 2020.810, 1464.120 2022, 1465.148 2022 C 1466.176 2022, 1468.881 2023.350, 1471.159 2025 C 1473.436 2026.650, 1476.249 2028, 1477.408 2028 C 1478.567 2028, 1481.608 2029.114, 1484.165 2030.475 C 1486.722 2031.836, 1490.986 2033.437, 1493.641 2034.032 C 1496.296 2034.627, 1499.220 2035.795, 1500.141 2036.627 C 1501.061 2037.460, 1504.423 2038.823, 1507.614 2039.656 C 1510.804 2040.489, 1515.013 2041.986, 1516.967 2042.983 C 1518.922 2043.980, 1523.216 2045.117, 1526.510 2045.508 C 1529.805 2045.900, 1535.221 2047.290, 1538.546 2048.597 C 1541.919 2049.923, 1548.580 2051.387, 1553.612 2051.907 C 1559.357 2052.502, 1564.129 2053.620, 1566.753 2054.988 C 1570.162 2056.765, 1573.607 2057.291, 1586.687 2058.034 C 1596.664 2058.600, 1604.530 2059.577, 1608 2060.681 C 1612.689 2062.173, 1617.628 2062.434, 1641.500 2062.450 C 1665.980 2062.466, 1670.946 2062.198, 1681 2060.316 C 1687.325 2059.133, 1697.833 2057.881, 1704.352 2057.535 C 1713.160 2057.068, 1717.793 2056.308, 1722.396 2054.575 C 1725.802 2053.293, 1731.874 2051.914, 1735.888 2051.511 C 1739.902 2051.108, 1745.810 2049.750, 1749.016 2048.494 C 1752.223 2047.237, 1757.243 2045.890, 1760.173 2045.500 C 1763.103 2045.110, 1766.884 2043.949, 1768.576 2042.921 C 1770.268 2041.893, 1774.768 2040.331, 1778.576 2039.449 C 1782.384 2038.568, 1786.175 2037.259, 1787 2036.540 C 1787.825 2035.821, 1791.150 2034.475, 1794.390 2033.548 C 1797.629 2032.621, 1801.229 2031.258, 1802.390 2030.519 C 1803.550 2029.780, 1809.675 2027.059, 1816 2024.472 C 1837.441 2015.701, 1861.606 2004.020, 1873.239 1996.802 C 1877.496 1994.161, 1881.180 1992, 1881.426 1992 C 1881.836 1992, 1888.457 1987.583, 1900 1979.609 C 1918.283 1966.978, 1949.548 1937.266, 1965.354 1917.500 C 1983.347 1894.999, 2002.889 1862.729, 2011.982 1840.500 C 2012.432 1839.400, 2013.679 1836.475, 2014.753 1834 C 2015.827 1831.525, 2018.636 1823.650, 2020.996 1816.500 C 2023.355 1809.350, 2025.637 1802.600, 2026.067 1801.500 C 2026.498 1800.400, 2027.134 1798.150, 2027.481 1796.500 C 2027.829 1794.850, 2028.790 1790.575, 2029.618 1787 C 2033.287 1771.158, 2037 1749.963, 2037 1744.866 L 2037 1740.931 2040.106 1744.216 C 2041.814 1746.022, 2095.527 1799.925, 2159.468 1864 C 2233.643 1938.330, 2276.991 1982.491, 2279.224 1986 C 2281.148 1989.025, 2283.557 1992.963, 2284.577 1994.750 C 2285.597 1996.538, 2286.809 1998, 2287.272 1998 C 2287.734 1998, 2289.057 2000.137, 2290.213 2002.750 C 2292.451 2007.814, 2294.823 2011.497, 2299.250 2016.785 C 2300.898 2018.753, 2302 2021.262, 2302 2023.046 C 2302 2026.046, 2305.477 2034.559, 2307.116 2035.572 C 2307.602 2035.872, 2308 2037.329, 2308.001 2038.809 C 2308.001 2040.289, 2309.325 2044.297, 2310.942 2047.716 C 2313.045 2052.161, 2314.182 2056.613, 2314.933 2063.349 C 2315.510 2068.528, 2316.881 2075.631, 2317.978 2079.133 C 2319.773 2084.857, 2319.976 2088.336, 2319.987 2113.575 C 2319.999 2140.401, 2319.896 2141.958, 2317.657 2148.575 C 2316.368 2152.384, 2315.030 2158.909, 2314.684 2163.075 C 2314.250 2168.308, 2313.304 2172.017, 2311.624 2175.075 C 2310.287 2177.509, 2308.876 2181.470, 2308.487 2183.879 C 2308.099 2186.287, 2306.968 2189.662, 2305.975 2191.379 C 2304.981 2193.095, 2303.506 2196.773, 2302.697 2199.552 C 2301.337 2204.221, 2296.442 2213.394, 2293.359 2217.050 C 2292.641 2217.902, 2291.370 2220.534, 2290.536 2222.899 C 2289.701 2225.264, 2288.146 2228.167, 2287.079 2229.349 C 2283.177 2233.675, 2279.384 2238.637, 2275.497 2244.500 C 2269.920 2252.912, 2246.036 2276.634, 2236.633 2283.099 C 2222.874 2292.560, 2220.674 2293.949, 2212 2298.655 C 2207.325 2301.191, 2201.925 2304.283, 2200 2305.526 C 2198.075 2306.768, 2194.888 2308.293, 2192.918 2308.915 C 2190.948 2309.536, 2187.591 2310.934, 2185.457 2312.022 C 2183.323 2313.110, 2180.749 2314, 2179.738 2314 C 2178.726 2314, 2174.434 2315.304, 2170.199 2316.899 C 2165.965 2318.493, 2158 2320.582, 2152.500 2321.542 C 2147 2322.501, 2140.700 2323.969, 2138.500 2324.803 C 2132.339 2327.140, 2083.053 2327.101, 2074 2324.752 C 2070.425 2323.824, 2062.640 2322.150, 2056.701 2321.033 C 2050.762 2319.915, 2044.687 2318.375, 2043.201 2317.611 C 2041.715 2316.847, 2037.575 2315.310, 2034 2314.195 C 2019.932 2309.807, 1998.822 2299.096, 1986.881 2290.287 C 1983.922 2288.103, 1980.307 2285.683, 1978.848 2284.909 C 1973.045 2281.827, 1961.441 2270.610, 1883.334 2192.583 C 1805.051 2114.380, 1802.025 2111.489, 1798.151 2111.196 C 1795.664 2111.007, 1792.679 2111.616, 1790.316 2112.793 C 1788.217 2113.840, 1783.575 2115.283, 1780 2116.001 C 1776.425 2116.719, 1771.475 2118.079, 1769 2119.023 C 1766.525 2119.967, 1761.432 2121.266, 1757.683 2121.910 C 1753.934 2122.555, 1748.553 2123.994, 1745.725 2125.108 C 1742.897 2126.223, 1736.515 2127.527, 1731.542 2128.007 C 1726.569 2128.486, 1715.075 2130.055, 1706 2131.493 C 1689.990 2134.030, 1688.104 2134.110, 1642.500 2134.188 C 1593.812 2134.271, 1589.972 2134.035, 1566.500 2129.503 C 1562.650 2128.760, 1557.025 2127.876, 1554 2127.539 C 1550.975 2127.203, 1546.346 2126.227, 1543.713 2125.371 C 1539.100 2123.871, 1536 2124.031, 1536 2125.768 C 1536 2126.560, 1824.102 2414.992, 1834.500 2424.609 C 1840.865 2430.496, 1849.375 2437, 1850.714 2437 C 1851.281 2437, 1854.444 2439.476, 1857.742 2442.503 C 1863.774 2448.039, 1874.753 2455.993, 1876.368 2455.998 C 1876.845 2455.999, 1878.774 2457.350, 1880.653 2459 C 1882.532 2460.650, 1884.511 2462, 1885.050 2462 C 1886.077 2462, 1897.109 2468.973, 1898.034 2470.207 C 1898.328 2470.598, 1901.099 2472.038, 1904.192 2473.406 C 1907.285 2474.774, 1910.116 2476.379, 1910.483 2476.973 C 1911.347 2478.370, 1927.239 2486, 1929.285 2486 C 1930.144 2486, 1932.139 2487.087, 1933.718 2488.416 C 1935.297 2489.745, 1938.369 2491.159, 1940.545 2491.559 C 1942.720 2491.958, 1946.926 2493.571, 1949.891 2495.143 C 1952.856 2496.714, 1956.127 2498, 1957.160 2498 C 1958.193 2498, 1961.568 2499.350, 1964.660 2501 C 1967.752 2502.650, 1971.456 2504.004, 1972.891 2504.010 C 1974.326 2504.015, 1977.975 2505.173, 1981 2506.583 C 1984.025 2507.993, 1988.750 2509.375, 1991.500 2509.654 C 1994.250 2509.933, 1999.095 2511.278, 2002.266 2512.644 C 2005.707 2514.125, 2011.417 2515.476, 2016.429 2515.993 C 2021.048 2516.469, 2026.119 2517.527, 2027.698 2518.344 C 2031.641 2520.383, 2035.168 2520.897, 2052.500 2521.961 C 2062.261 2522.560, 2069.072 2523.481, 2072 2524.599 C 2078.593 2527.115, 2130.090 2527.175, 2140.500 2524.678 C 2144.350 2523.755, 2155.150 2522.349, 2164.500 2521.553 C 2174.112 2520.736, 2183.072 2519.450, 2185.118 2518.595 C 2187.108 2517.764, 2193.408 2516.342, 2199.118 2515.435 C 2204.828 2514.529, 2210.688 2513.174, 2212.139 2512.425 C 2213.591 2511.676, 2218.316 2510.341, 2222.639 2509.458 C 2226.963 2508.575, 2231.533 2507.187, 2232.795 2506.374 C 2234.057 2505.561, 2238.508 2504.021, 2242.687 2502.952 C 2246.865 2501.884, 2250.831 2500.555, 2251.500 2500 C 2252.168 2499.446, 2255.142 2498.142, 2258.108 2497.103 C 2267.534 2493.802, 2297.213 2480.508, 2303 2476.994 C 2303.825 2476.493, 2309.140 2473.252, 2314.811 2469.791 C 2320.482 2466.331, 2326.782 2462.630, 2328.811 2461.568 C 2332.106 2459.842, 2339.332 2454.836, 2353 2444.813 C 2355.475 2442.998, 2361.550 2438.135, 2366.500 2434.006 C 2371.450 2429.878, 2377.750 2424.733, 2380.500 2422.573 C 2386.708 2417.697, 2413.709 2390.602, 2417.582 2385.362 C 2419.152 2383.238, 2421.576 2380.134, 2422.968 2378.464 C 2424.361 2376.795, 2426.850 2373.689, 2428.500 2371.561 C 2430.150 2369.434, 2433.804 2364.950, 2436.620 2361.597 C 2439.436 2358.244, 2442.477 2354.150, 2443.379 2352.500 C 2444.280 2350.850, 2447.288 2346.350, 2450.063 2342.500 C 2452.837 2338.650, 2457.358 2331.450, 2460.109 2326.500 C 2462.859 2321.550, 2466.195 2315.700, 2467.521 2313.500 C 2468.846 2311.300, 2471.585 2306.125, 2473.606 2302 C 2475.627 2297.875, 2478.617 2291.800, 2480.250 2288.500 C 2481.884 2285.200, 2484.258 2279.800, 2485.527 2276.500 C 2488.400 2269.023, 2492.734 2258.307, 2494.222 2255 C 2494.841 2253.625, 2496.125 2249.800, 2497.077 2246.500 C 2498.028 2243.200, 2499.723 2237.800, 2500.843 2234.500 C 2501.962 2231.200, 2503.375 2226.475, 2503.981 2224 C 2504.588 2221.525, 2505.756 2217.250, 2506.576 2214.500 C 2507.396 2211.750, 2508.711 2205.675, 2509.499 2201 C 2510.286 2196.325, 2511.796 2188.427, 2512.854 2183.449 C 2513.912 2178.471, 2515.088 2169.021, 2515.466 2162.449 C 2515.845 2155.877, 2516.795 2145.113, 2517.577 2138.530 C 2519.488 2122.454, 2519.371 2110.215, 2517.018 2079.973 C 2514.189 2043.616, 2513.207 2037.771, 2503.923 2002 C 2503.281 1999.525, 2501.496 1993.900, 2499.957 1989.500 C 2498.418 1985.100, 2496.843 1979.925, 2496.457 1978 C 2496.071 1976.075, 2494.973 1972.925, 2494.015 1971 C 2493.058 1969.075, 2491.484 1965.087, 2490.519 1962.137 C 2489.554 1959.188, 2488.145 1955.588, 2487.388 1954.137 C 2486.632 1952.687, 2486.010 1951.139, 2486.006 1950.699 C 2486.001 1950.021, 2479.252 1935.587, 2473.056 1923 C 2466.682 1910.054, 2450.171 1882.816, 2443.051 1873.500 C 2440.528 1870.200, 2437.659 1866.238, 2436.674 1864.696 C 2428.910 1852.539, 2403.061 1825.875, 2266.086 1688.731 C 2064.384 1486.780, 2048.427 1470.938, 2032 1456.338 C 2011.813 1438.396, 1967.330 1410.076, 1939 1397.128 C 1925.402 1390.914, 1916.211 1387, 1915.214 1387 C 1914.645 1387, 1911.327 1385.650, 1907.840 1384.001 C 1904.353 1382.351, 1900.463 1381.001, 1899.195 1381.001 C 1897.928 1381, 1893.841 1379.702, 1890.114 1378.116 C 1886.387 1376.530, 1881.349 1374.920, 1878.919 1374.538 C 1876.489 1374.155, 1872.197 1373.007, 1869.383 1371.985 C 1866.568 1370.963, 1860.718 1369.449, 1856.383 1368.620 C 1852.047 1367.791, 1845.575 1366.445, 1842 1365.629 C 1838.425 1364.813, 1828.525 1363.416, 1820 1362.526 C 1811.475 1361.635, 1799.414 1360.252, 1793.199 1359.453 C 1778.293 1357.536, 1746.520 1357.547, 1734.044 1359.473 C 1728.795 1360.283, 1717.750 1361.645, 1709.500 1362.500 C 1701.250 1363.354, 1691.350 1364.900, 1687.500 1365.935 C 1683.650 1366.970, 1677.165 1368.319, 1673.089 1368.933 C 1669.013 1369.547, 1663.781 1370.888, 1661.462 1371.914 C 1659.144 1372.939, 1654.829 1374.100, 1651.873 1374.492 C 1648.918 1374.885, 1643.500 1376.510, 1639.832 1378.103 C 1636.165 1379.696, 1632.218 1381, 1631.060 1381 C 1629.903 1381, 1625.979 1382.350, 1622.340 1384 C 1618.701 1385.650, 1615.071 1387, 1614.273 1387 C 1613.476 1387, 1609.907 1388.350, 1606.342 1390 C 1602.777 1391.650, 1599.374 1393, 1598.780 1393 C 1598.186 1393, 1595.405 1394.109, 1592.600 1395.465 C 1589.795 1396.821, 1584.125 1399.352, 1580 1401.089 C 1571.041 1404.862, 1550.011 1415.298, 1541.154 1420.368 C 1537.664 1422.366, 1534.626 1424, 1534.403 1424 C 1533.250 1424, 1503.208 1444.960, 1495 1451.491 C 1475.806 1466.763, 1455.346 1487.570, 1440.417 1507 C 1435.399 1513.531, 1433.446 1516.340, 1424.831 1529.414 C 1422.263 1533.311, 1419.675 1537.044, 1419.081 1537.708 C 1418.486 1538.372, 1418 1539.169, 1418 1539.478 C 1418 1539.787, 1416.895 1541.791, 1415.543 1543.931 C 1410.518 1551.892, 1392 1589.693, 1392 1591.990 C 1392 1593.119, 1389.262 1601.691, 1388.004 1604.500 C 1386.922 1606.914, 1383.620 1618.564, 1380.916 1629.500 C 1379.829 1633.900, 1378.513 1639.075, 1377.993 1641 C 1377.090 1644.340, 1376.017 1650.697, 1373.939 1665 C 1373.419 1668.575, 1372.658 1673.413, 1372.247 1675.751 L 1371.500 1680.001 1256.353 1564.751 C 1193.023 1501.363, 1138.891 1447.025, 1136.062 1444 C 1133.232 1440.975, 1129.976 1436.714, 1128.827 1434.532 C 1127.677 1432.349, 1124.546 1427.670, 1121.868 1424.133 C 1119.191 1420.596, 1117 1417.356, 1117 1416.933 C 1117 1416.511, 1115.044 1412.857, 1112.653 1408.813 C 1105.317 1396.404, 1096.268 1372.452, 1093.013 1356.826 C 1091.904 1351.505, 1090.245 1344.305, 1089.326 1340.826 C 1087.954 1335.631, 1087.657 1329.495, 1087.664 1306.496 C 1087.673 1280.507, 1087.829 1278.024, 1089.829 1271.996 C 1091.015 1268.423, 1092.650 1261.050, 1093.464 1255.610 C 1094.277 1250.171, 1095.593 1244.996, 1096.387 1244.110 C 1097.181 1243.225, 1098.582 1239.575, 1099.499 1236 C 1100.417 1232.425, 1101.975 1228.150, 1102.963 1226.500 C 1103.950 1224.850, 1105.319 1221.700, 1106.005 1219.500 C 1106.691 1217.300, 1107.825 1214.825, 1108.524 1214 C 1109.224 1213.175, 1112.115 1208.062, 1114.949 1202.639 C 1117.783 1197.215, 1121.991 1190.285, 1124.301 1187.238 C 1126.610 1184.191, 1130.550 1178.729, 1133.056 1175.099 C 1140.678 1164.059, 1169.697 1136, 1173.492 1136 C 1173.891 1136, 1176.980 1133.809, 1180.358 1131.130 C 1183.736 1128.452, 1188.750 1125.052, 1191.500 1123.574 C 1194.250 1122.097, 1199.635 1119.097, 1203.466 1116.909 C 1207.297 1114.720, 1211.572 1112.669, 1212.966 1112.350 C 1214.360 1112.031, 1217.750 1110.536, 1220.500 1109.028 C 1223.250 1107.520, 1227.744 1105.953, 1230.487 1105.546 C 1233.230 1105.139, 1237.280 1103.749, 1239.487 1102.456 C 1242.125 1100.911, 1245.898 1099.881, 1250.500 1099.450 C 1254.350 1099.090, 1261.011 1097.716, 1265.302 1096.398 C 1272.721 1094.117, 1274.434 1094, 1300.302 1094.001 C 1325.884 1094.001, 1328.035 1094.145, 1336.500 1096.411 C 1341.450 1097.737, 1348.650 1099.127, 1352.500 1099.502 C 1356.743 1099.915, 1362.126 1101.328, 1366.168 1103.091 C 1369.835 1104.691, 1373.781 1106, 1374.937 1106 C 1376.094 1106, 1378.849 1107.142, 1381.060 1108.538 C 1383.271 1109.933, 1387.078 1111.449, 1389.522 1111.905 C 1391.965 1112.362, 1395.434 1113.845, 1397.232 1115.201 C 1399.029 1116.557, 1403.650 1119.397, 1407.500 1121.513 C 1411.350 1123.628, 1415.911 1126.515, 1417.635 1127.929 C 1419.359 1129.343, 1423.312 1132.030, 1426.420 1133.900 C 1433.595 1138.217, 1446.206 1150.421, 1533.722 1237.750 C 1572.994 1276.938, 1605.885 1309.046, 1606.813 1309.101 C 1611.439 1309.379, 1615.799 1308.634, 1618.979 1307.024 C 1620.915 1306.042, 1624.525 1304.915, 1627 1304.519 C 1629.475 1304.122, 1634.200 1302.753, 1637.500 1301.475 C 1640.800 1300.198, 1646.801 1298.658, 1650.836 1298.054 C 1654.870 1297.450, 1659.820 1296.255, 1661.836 1295.399 C 1663.851 1294.543, 1671.125 1293.187, 1678 1292.385 C 1684.875 1291.584, 1695.450 1289.931, 1701.500 1288.714 C 1712.060 1286.589, 1714.601 1286.503, 1765 1286.587 C 1810.259 1286.662, 1818.466 1286.904, 1824.500 1288.336 C 1828.350 1289.251, 1837.350 1290.689, 1844.500 1291.533 C 1851.650 1292.377, 1860.284 1293.953, 1863.687 1295.034 C 1871.064 1297.378, 1872 1297.439, 1872 1295.580 C 1872 1294.800, 1857.713 1279.971, 1840.250 1262.628 C 1822.787 1245.284, 1769.575 1192.137, 1722 1144.523 C 1577.742 1000.146, 1573.678 996.154, 1561.500 986.881 C 1558.750 984.787, 1554.700 981.682, 1552.500 979.980 C 1542.799 972.478, 1539.876 970.391, 1529.500 963.551 C 1507.364 948.959, 1501.584 945.757, 1473 932.252 C 1458.833 925.559, 1456.397 924.525, 1450 922.489 C 1446.975 921.526, 1443.375 920.190, 1442 919.520 C 1437.821 917.484, 1423.837 912.805, 1418 911.490 C 1414.975 910.808, 1408.912 909.069, 1404.528 907.625 C 1400.143 906.181, 1395.311 905, 1393.790 905 C 1392.269 905, 1386.632 903.855, 1381.263 902.455 C 1375.893 901.055, 1366.550 899.463, 1360.500 898.917 C 1354.450 898.372, 1348.150 897.469, 1346.500 896.911 C 1339.395 894.508, 1295.960 893.312, 1277 894.998 M 1702.982 1458.250 C 1702.944 1469.016, 1698.247 1495.896, 1693.486 1512.593 C 1679.786 1560.640, 1650.218 1608.391, 1614.500 1640.151 C 1569.368 1680.282, 1515.304 1704.522, 1458.328 1710.174 C 1451.547 1710.847, 1446 1711.696, 1446 1712.061 C 1446 1712.427, 1450.838 1713.259, 1456.750 1713.910 C 1552.235 1724.429, 1632.953 1780.546, 1675.515 1866 C 1689.997 1895.077, 1700.339 1931.542, 1702.658 1961.706 C 1703.011 1966.305, 1703.683 1970.304, 1704.150 1970.593 C 1704.618 1970.882, 1705 1970.751, 1705 1970.303 C 1705 1966.801, 1708.317 1942.435, 1709.919 1934.173 C 1725.542 1853.577, 1779.234 1781.760, 1852 1744.127 C 1883.786 1727.689, 1920.460 1716.910, 1956.250 1713.486 C 1959.963 1713.131, 1963 1712.493, 1963 1712.069 C 1963 1711.644, 1959.287 1711.026, 1954.750 1710.695 C 1943.816 1709.897, 1925.206 1706.639, 1910.970 1703.030 C 1826.089 1681.518, 1755.923 1619.599, 1723.577 1537.663 C 1714.837 1515.524, 1708.495 1489.337, 1705.918 1464.750 C 1704.647 1452.622, 1703.014 1449.008, 1702.982 1458.250" stroke="none" fill="#0c9c23" fill-rule="evenodd"/></svg>