<svg xmlns="http://www.w3.org/2000/svg" width="1024" height="1024" viewBox="0 0 1024 1024">
<g>
<path d="M 522.13,98.54 L 528.24,98.63 L 531.04,98.70 L 536.49,98.86 L 539.05,98.97 L 544.06,99.23 L 546.48,99.40 L 555.99,100.21 L 560.93,100.81 L 565.94,101.46 L 568.60,101.84 L 574.04,102.64 L 577.00,103.10 L 600.84,107.60 L 616.60,111.31 L 624.40,113.51 L 639.93,118.15 L 647.59,120.81 L 662.82,126.35 L 670.31,129.45 L 685.20,135.87 L 692.49,139.40 L 706.96,146.68 L 714.02,150.63 L 728.02,158.73 L 734.82,163.08 L 748.29,171.99 L 754.80,176.74 L 770.74,188.94 L 781.02,197.41 L 786.00,201.82 L 795.83,210.73 L 800.57,215.34 L 809.93,224.67 L 814.43,229.48 L 823.31,239.21 L 827.56,244.22 L 835.95,254.33 L 839.95,259.53 L 847.84,270.01 L 851.59,275.38 L 858.96,286.20 L 862.45,291.74 L 869.29,302.90 L 872.52,308.59 L 878.83,320.06 L 881.78,325.90 L 887.54,337.67 L 890.21,343.65 L 895.41,355.69 L 897.80,361.81 L 902.43,374.11 L 904.53,380.35 L 908.59,392.89 L 910.39,399.25 L 913.85,412.01 L 915.35,418.47 L 918.21,431.44 L 919.41,438.00 L 921.05,447.38 L 921.98,453.23 L 922.38,456.04 L 923.77,467.00 L 924.22,472.56 L 924.63,478.17 L 924.79,481.11 L 925.07,487.09 L 925.16,490.30 L 925.32,496.89 L 925.37,500.48 L 925.43,507.90 L 925.43,512.00 L 925.41,520.07 L 925.37,524.96 L 925.34,527.19 L 925.27,531.51 L 925.22,533.49 L 925.11,537.34 L 925.04,539.12 L 924.89,542.58 L 924.80,544.19 L 924.61,547.36 L 924.49,548.86 L 923.99,554.68 L 923.65,557.50 L 921.18,575.34 L 919.19,587.09 L 918.03,592.90 L 915.58,604.46 L 914.19,610.17 L 911.29,621.54 L 909.67,627.15 L 906.33,638.32 L 904.49,643.83 L 900.69,654.79 L 898.63,660.19 L 894.39,670.94 L 892.11,676.24 L 887.43,686.78 L 884.92,691.96 L 879.80,702.28 L 877.08,707.35 L 871.52,717.44 L 868.58,722.39 L 862.59,732.25 L 859.43,737.09 L 853.01,746.70 L 849.64,751.42 L 842.78,760.80 L 839.20,765.39 L 831.92,774.52 L 828.12,778.99 L 820.42,787.86 L 816.41,792.20 L 808.28,800.82 L 804.07,805.03 L 791.95,816.70 L 783.81,824.11 L 779.69,827.64 L 771.42,834.60 L 767.21,837.92 L 758.75,844.46 L 754.43,847.60 L 745.71,853.77 L 741.25,856.73 L 732.23,862.58 L 727.59,865.39 L 718.21,870.95 L 713.37,873.64 L 703.57,878.95 L 698.50,881.53 L 681.83,889.57 L 670.71,894.49 L 665.11,896.74 L 653.90,901.11 L 648.24,903.09 L 636.86,906.93 L 631.08,908.65 L 619.47,911.97 L 613.55,913.45 L 601.62,916.28 L 595.51,917.52 L 583.20,919.89 L 576.87,920.90 L 564.09,922.82 L 557.50,923.62 L 555.93,923.80 L 554.94,923.88 L 552.81,924.05 L 551.57,924.13 L 548.96,924.30 L 547.51,924.37 L 544.51,924.53 L 542.88,924.61 L 536.09,924.90 L 532.41,925.02 L 524.89,925.26 L 521.09,925.36 L 513.49,925.53 L 509.88,925.59 L 506.32,925.64 L 504.62,925.65 L 501.30,925.68 L 499.75,925.69 L 496.74,925.69 L 495.38,925.68 L 492.77,925.66 L 491.64,925.63 L 489.50,925.58 L 488.64,925.54 L 487.05,925.46 L 486.50,925.40 L 485.46,925.30 L 484.57,925.22 L 484.04,925.17 L 481.70,924.94 L 480.30,924.81 L 477.36,924.53 L 475.78,924.39 L 472.58,924.09 L 471.00,923.94 L 454.99,922.11 L 444.39,920.58 L 439.13,919.66 L 428.65,917.71 L 423.45,916.58 L 413.09,914.22 L 407.96,912.89 L 397.74,910.13 L 392.68,908.60 L 382.59,905.45 L 377.61,903.73 L 367.68,900.20 L 362.77,898.29 L 353.01,894.38 L 348.19,892.29 L 338.59,888.01 L 333.86,885.74 L 324.45,881.11 L 319.82,878.66 L 310.60,873.68 L 306.06,871.06 L 297.04,865.74 L 292.61,862.95 L 283.81,857.30 L 279.49,854.35 L 270.90,848.37 L 266.69,845.26 L 258.34,838.97 L 254.25,835.70 L 246.14,829.10 L 242.18,825.69 L 234.31,818.79 L 230.48,815.23 L 222.88,808.04 L 219.18,804.34 L 211.85,796.86 L 208.29,793.02 L 201.23,785.28 L 197.82,781.30 L 191.06,773.29 L 187.79,769.19 L 181.32,760.92 L 178.21,756.69 L 172.06,748.17 L 169.10,743.83 L 163.27,735.07 L 160.47,730.60 L 154.97,721.62 L 152.34,717.04 L 147.18,707.83 L 144.73,703.14 L 139.91,693.71 L 137.63,688.92 L 133.17,679.29 L 131.08,674.40 L 126.99,664.57 L 125.09,659.58 L 121.38,649.56 L 119.66,644.49 L 116.34,634.29 L 114.82,629.12 L 111.90,618.75 L 110.59,613.50 L 107.45,600.32 L 105.63,591.97 L 104.86,587.94 L 103.39,579.96 L 102.77,576.04 L 101.62,568.21 L 101.16,564.28 L 100.30,556.38 L 99.97,552.33 L 99.37,544.13 L 99.17,539.85 L 98.81,531.14 L 98.71,526.52 L 98.57,517.08 L 98.57,512.00 L 98.63,500.47 L 98.74,493.49 L 98.84,490.28 L 99.06,484.01 L 99.21,481.07 L 99.56,475.30 L 99.78,472.52 L 100.84,461.60 L 101.63,456.00 L 102.47,450.34 L 102.96,447.35 L 104.00,441.27 L 104.60,438.00 L 107.89,421.88 L 110.38,411.25 L 111.78,406.00 L 114.67,395.54 L 116.26,390.38 L 119.55,380.09 L 121.33,375.01 L 124.99,364.91 L 126.96,359.93 L 131.00,350.02 L 133.15,345.14 L 137.55,335.42 L 139.89,330.64 L 144.64,321.14 L 147.15,316.47 L 152.25,307.18 L 154.93,302.62 L 160.37,293.55 L 163.21,289.11 L 168.98,280.27 L 171.98,275.95 L 178.07,267.36 L 181.24,263.15 L 187.64,254.81 L 190.96,250.74 L 197.66,242.65 L 201.13,238.71 L 208.13,230.89 L 211.74,227.09 L 219.03,219.54 L 222.78,215.88 L 230.35,208.61 L 234.23,205.09 L 242.07,198.12 L 246.09,194.75 L 254.19,188.08 L 258.33,184.86 L 266.69,178.50 L 270.96,175.43 L 279.55,169.38 L 283.94,166.48 L 292.78,160.76 L 297.28,158.02 L 306.34,152.63 L 310.95,150.06 L 320.23,145.01 L 324.95,142.62 L 334.44,137.92 L 339.27,135.70 L 348.96,131.36 L 353.88,129.33 L 363.76,125.35 L 368.78,123.50 L 378.85,119.90 L 383.95,118.24 L 394.20,115.02 L 399.39,113.56 L 409.80,110.73 L 415.07,109.46 L 425.65,107.03 L 430.99,105.97 L 441.72,103.94 L 447.14,103.09 L 455.47,101.83 L 460.64,101.11 L 463.10,100.81 L 472.68,99.75 L 477.52,99.40 L 482.39,99.09 L 484.95,98.97 L 490.16,98.77 L 492.96,98.70 L 498.71,98.58 L 501.87,98.55 L 508.38,98.50 L 512.00,98.50 M 379.14,264.36 L 375.78,264.63 L 369.00,265.33 L 365.58,265.91 L 358.72,267.22 L 355.29,268.09 L 348.43,269.99 L 345.04,271.15 L 338.28,273.61 L 334.96,275.04 L 328.39,278.04 L 325.21,279.73 L 318.91,283.25 L 315.90,285.19 L 314.20,286.38 L 312.94,287.32 L 312.26,287.87 L 309.40,290.22 L 307.83,291.61 L 304.61,294.52 L 302.94,296.10 L 299.57,299.34 L 297.91,301.01 L 294.62,304.37 L 293.07,306.01 L 290.06,309.27 L 288.74,310.78 L 286.24,313.72 L 285.26,314.99 L 284.32,316.23 L 283.93,316.78 L 283.20,317.85 L 282.93,318.31 L 279.85,323.50 L 278.84,325.18 L 278.40,325.92 L 277.56,327.30 L 277.26,327.81 L 275.96,330.23 L 274.95,332.34 L 274.40,333.58 L 273.27,336.16 L 272.69,337.57 L 271.52,340.43 L 270.94,341.90 L 269.81,344.85 L 269.28,346.29 L 268.26,349.12 L 267.81,350.42 L 266.98,352.94 L 266.66,354.01 L 266.09,356.01 L 265.94,356.75 L 264.31,365.78 L 263.50,371.78 L 263.23,374.75 L 262.78,380.67 L 262.69,383.59 L 262.61,389.40 L 262.70,392.24 L 262.98,397.88 L 263.26,400.62 L 263.89,406.05 L 264.35,408.67 L 265.35,413.84 L 265.98,416.32 L 267.34,421.19 L 268.15,423.50 L 268.89,425.58 L 269.37,426.88 L 269.69,427.71 L 270.03,428.57 L 270.24,429.09 L 270.67,430.19 L 270.94,430.85 L 271.51,432.27 L 271.85,433.12 L 272.57,434.92 L 273.01,436.00 L 274.05,438.34 L 274.96,440.18 L 275.50,441.20 L 277.86,445.54 L 279.25,447.90 L 282.13,452.70 L 283.62,455.03 L 286.61,459.57 L 287.99,461.50 L 288.59,462.21 L 289.29,462.98 L 289.78,463.51 L 290.85,464.65 L 291.52,465.35 L 292.95,466.85 L 293.79,467.72 L 295.55,469.54 L 296.55,470.56 L 298.62,472.69 L 299.76,473.86 L 302.12,476.27 L 303.41,477.58 L 306.04,480.25 L 307.45,481.68 L 310.32,484.60 L 311.85,486.14 L 314.95,489.28 L 316.59,490.92 L 323.31,497.70 L 326.92,501.33 L 334.32,508.74 L 338.21,512.64 L 346.10,520.52 L 350.18,524.59 L 358.40,532.77 L 363.54,537.87 L 365.94,540.26 L 370.64,544.91 L 372.83,547.08 L 377.11,551.31 L 379.10,553.27 L 382.98,557.08 L 384.78,558.84 L 388.28,562.27 L 389.89,563.85 L 393.04,566.90 L 394.48,568.30 L 397.29,571.01 L 398.57,572.23 L 401.06,574.61 L 402.19,575.68 L 404.38,577.74 L 405.37,578.66 L 407.29,580.43 L 408.15,581.21 L 409.81,582.71 L 410.55,583.36 L 411.97,584.61 L 412.61,585.14 L 413.81,586.15 L 414.34,586.58 L 416.28,588.06 L 417.00,588.53 L 424.09,592.81 L 429.16,595.63 L 431.53,596.84 L 433.85,598.01 L 434.91,598.51 L 436.94,599.46 L 437.80,599.83 L 439.41,600.49 L 440.01,600.69 L 441.07,601.00 L 441.36,601.00 L 442.59,601.26 L 443.28,601.64 L 443.43,601.88 L 444.48,602.66 L 445.61,603.14 L 446.24,603.28 L 447.59,603.61 L 448.85,603.94 L 449.60,604.14 L 452.85,605.01 L 454.50,605.47 L 459.60,606.72 L 463.19,607.46 L 465.05,607.77 L 472.61,608.88 L 476.42,609.20 L 484.01,609.67 L 487.56,609.65 L 491.06,609.59 L 492.70,609.49 L 495.92,609.25 L 497.39,609.06 L 505.02,607.91 L 510.12,607.02 L 512.44,606.55 L 514.71,606.08 L 515.75,605.85 L 517.74,605.40 L 518.61,605.18 L 520.25,604.76 L 520.91,604.56 L 522.10,604.18 L 522.50,604.02 L 523.12,603.76 L 523.73,603.52 L 524.13,603.36 L 525.92,602.65 L 527.07,602.20 L 529.53,601.23 L 530.92,600.68 L 533.78,599.56 L 535.26,598.98 L 540.98,596.62 L 544.58,595.01 L 546.28,594.17 L 552.85,590.75 L 555.85,588.86 L 561.69,584.94 L 564.45,582.74 L 569.88,578.13 L 572.56,575.50 L 576.17,571.83 L 578.39,569.46 L 579.42,568.29 L 583.31,563.67 L 585.00,561.34 L 588.22,556.63 L 589.65,554.15 L 592.42,549.05 L 593.72,546.24 L 595.08,542.99 L 596.03,540.50 L 596.50,539.14 L 598.36,533.47 L 599.18,530.61 L 599.97,527.76 L 600.31,526.42 L 600.95,523.79 L 601.20,522.61 L 601.65,520.36 L 601.79,519.43 L 602.00,517.72 L 602.00,517.13 L 602.29,516.67 L 602.83,516.79 L 603.32,517.11 L 603.85,517.46 L 604.18,517.72 L 604.88,518.27 L 605.30,518.62 L 606.19,519.38 L 606.71,519.85 L 607.81,520.84 L 608.44,521.42 L 609.77,522.66 L 610.52,523.37 L 612.09,524.86 L 612.97,525.71 L 614.81,527.48 L 615.83,528.48 L 617.94,530.54 L 619.11,531.69 L 621.52,534.06 L 622.84,535.37 L 625.57,538.07 L 627.06,539.55 L 630.12,542.60 L 631.79,544.25 L 635.21,547.66 L 637.05,549.51 L 644.30,556.75 L 648.69,561.16 L 650.69,563.17 L 654.54,567.07 L 656.27,568.84 L 659.63,572.29 L 661.13,573.86 L 664.02,576.90 L 665.31,578.29 L 667.79,580.99 L 668.88,582.23 L 670.99,584.64 L 671.91,585.76 L 673.68,587.94 L 674.45,588.96 L 675.93,590.96 L 676.58,591.91 L 677.81,593.79 L 678.34,594.70 L 680.29,598.29 L 681.05,600.11 L 682.46,603.82 L 683.08,605.86 L 684.29,610.13 L 684.93,612.62 L 685.38,614.94 L 685.62,616.79 L 685.71,617.82 L 685.96,622.19 L 685.96,624.50 L 685.88,629.12 L 685.71,631.18 L 685.51,633.18 L 685.38,634.06 L 685.11,635.72 L 684.93,636.38 L 683.40,641.96 L 682.38,645.28 L 681.85,646.78 L 680.78,649.67 L 680.21,650.99 L 679.03,653.56 L 678.38,654.76 L 677.04,657.11 L 676.29,658.24 L 674.72,660.48 L 673.84,661.59 L 671.99,663.82 L 670.95,664.97 L 668.76,667.31 L 667.53,668.55 L 663.82,672.10 L 661.45,674.20 L 660.28,675.13 L 657.95,676.93 L 656.77,677.72 L 654.39,679.25 L 653.15,679.94 L 650.64,681.26 L 649.30,681.85 L 646.56,683.01 L 645.08,683.54 L 642.03,684.59 L 640.36,685.08 L 636.91,686.06 L 635.00,686.54 L 629.24,687.58 L 625.22,687.92 L 623.15,687.92 L 618.97,687.81 L 616.85,687.59 L 612.59,687.04 L 610.46,686.60 L 606.21,685.63 L 604.11,684.99 L 599.95,683.61 L 597.93,682.78 L 593.93,681.01 L 592.03,679.99 L 588.28,677.86 L 586.53,676.65 L 585.40,675.72 L 584.16,674.61 L 583.33,673.84 L 581.53,672.16 L 580.44,671.13 L 578.16,668.96 L 576.86,667.71 L 574.16,665.12 L 572.68,663.69 L 569.66,660.75 L 568.05,659.18 L 564.77,655.97 L 563.06,654.29 L 559.61,650.89 L 557.85,649.14 L 553.86,645.19 L 551.41,642.77 L 550.28,641.66 L 548.10,639.51 L 547.10,638.54 L 545.17,636.65 L 544.29,635.80 L 542.59,634.15 L 541.82,633.41 L 540.33,632.00 L 539.66,631.37 L 538.37,630.16 L 537.80,629.63 L 536.69,628.63 L 536.20,628.19 L 534.39,626.63 L 533.69,626.09 L 532.42,625.15 L 531.93,624.87 L 531.06,624.44 L 530.72,624.36 L 530.11,624.31 L 529.85,624.38 L 523.36,626.16 L 519.39,627.18 L 517.54,627.61 L 513.91,628.42 L 512.18,628.76 L 508.77,629.38 L 507.10,629.63 L 500.46,630.46 L 496.95,630.68 L 493.38,630.86 L 491.48,630.91 L 487.60,630.98 L 485.50,630.98 L 473.06,630.57 L 469.16,630.28 L 467.45,630.10 L 464.22,629.72 L 463.00,629.50 L 459.66,628.92 L 457.67,628.58 L 456.85,628.44 L 455.36,628.20 L 454.87,628.12 L 454.07,628.00 L 454.00,628.00 L 454.18,628.23 L 454.52,628.61 L 454.80,628.90 L 455.43,629.56 L 455.84,629.99 L 456.74,630.92 L 457.28,631.48 L 458.43,632.66 L 459.10,633.34 L 460.49,634.76 L 461.27,635.55 L 462.88,637.20 L 463.77,638.10 L 465.59,639.95 L 466.58,640.95 L 470.71,645.13 L 473.03,647.48 L 477.84,652.33 L 480.46,654.96 L 485.83,660.36 L 488.68,663.22 L 494.48,669.05 L 497.50,672.08 L 505.98,680.55 L 511.19,685.75 L 513.59,688.13 L 518.25,692.75 L 520.40,694.87 L 524.58,698.96 L 526.49,700.83 L 530.22,704.44 L 531.93,706.07 L 535.26,709.24 L 536.79,710.67 L 539.76,713.43 L 541.14,714.67 L 543.81,717.07 L 545.04,718.14 L 547.46,720.22 L 548.58,721.15 L 550.78,722.94 L 551.82,723.75 L 555.83,726.74 L 557.70,727.97 L 561.38,730.29 L 563.23,731.32 L 566.98,733.30 L 569.00,734.27 L 577.34,737.85 L 583.40,740.08 L 586.52,741.05 L 592.79,742.91 L 595.82,743.64 L 601.79,744.97 L 604.50,745.39 L 610.47,746.21 L 613.32,746.45 L 618.94,746.81 L 621.71,746.82 L 627.26,746.71 L 630.10,746.49 L 635.85,745.92 L 638.90,745.47 L 644.50,744.59 L 647.81,744.02 L 649.31,743.72 L 652.21,743.12 L 653.57,742.79 L 656.23,742.11 L 657.53,741.73 L 662.66,740.05 L 665.49,738.91 L 668.39,737.72 L 669.98,737.02 L 673.28,735.55 L 675.14,734.70 L 681.52,731.52 L 685.67,729.20 L 687.69,727.95 L 691.69,725.37 L 693.62,723.99 L 697.45,721.17 L 699.30,719.68 L 702.96,716.63 L 704.72,715.02 L 708.19,711.75 L 709.85,710.04 L 713.13,706.57 L 714.69,704.76 L 717.77,701.10 L 719.23,699.20 L 722.09,695.36 L 723.43,693.37 L 726.07,689.37 L 727.30,687.30 L 729.71,683.14 L 730.82,681.01 L 732.98,676.70 L 733.97,674.50 L 735.88,670.07 L 736.73,667.82 L 738.38,663.27 L 739.10,660.96 L 740.47,656.31 L 741.06,653.95 L 742.15,649.21 L 742.58,646.82 L 743.20,642.55 L 743.53,639.27 L 743.65,637.47 L 743.88,633.78 L 743.95,631.85 L 744.08,627.92 L 744.10,625.93 L 744.07,617.95 L 743.89,614.28 L 743.68,610.68 L 743.53,609.05 L 743.21,605.91 L 743.01,604.57 L 741.80,598.26 L 740.72,593.89 L 740.06,591.66 L 738.66,587.17 L 737.85,584.90 L 736.16,580.36 L 735.21,578.10 L 733.27,573.61 L 732.21,571.40 L 730.04,567.03 L 728.89,564.91 L 726.54,560.75 L 725.31,558.77 L 722.81,554.90 L 721.52,553.11 L 720.48,551.80 L 719.49,550.64 L 718.86,549.93 L 717.51,548.41 L 716.70,547.53 L 715.00,545.68 L 714.03,544.65 L 712.01,542.50 L 710.89,541.32 L 708.58,538.89 L 707.33,537.58 L 704.75,534.89 L 703.37,533.47 L 700.56,530.56 L 699.07,529.03 L 692.90,522.70 L 689.56,519.30 L 682.71,512.35 L 679.11,508.71 L 671.79,501.34 L 668.02,497.57 L 660.44,489.98 L 656.62,486.17 L 648.98,478.57 L 645.21,474.84 L 637.71,467.44 L 634.09,463.88 L 626.95,456.87 L 623.58,453.59 L 620.26,450.35 L 618.66,448.80 L 615.50,445.74 L 613.99,444.29 L 611.04,441.44 L 609.64,440.10 L 606.91,437.49 L 605.63,436.28 L 603.15,433.93 L 602.01,432.86 L 599.80,430.79 L 598.80,429.88 L 596.90,428.12 L 596.06,427.37 L 594.48,425.96 L 593.82,425.38 L 592.60,424.33 L 592.12,423.95 L 591.27,423.29 L 591.00,423.11 L 582.39,418.02 L 576.13,414.73 L 572.95,413.23 L 566.62,410.37 L 563.66,409.20 L 560.74,408.09 L 559.38,407.62 L 556.71,406.74 L 555.50,406.40 L 550.42,405.13 L 546.81,404.37 L 544.94,404.04 L 537.27,402.84 L 533.39,402.46 L 525.65,401.84 L 522.03,401.78 L 518.46,401.75 L 516.79,401.81 L 513.52,401.96 L 512.03,402.11 L 506.81,402.68 L 503.58,403.10 L 502.05,403.34 L 496.12,404.38 L 493.23,405.08 L 487.40,406.63 L 484.22,407.67 L 480.98,408.76 L 479.24,409.39 L 475.66,410.69 L 473.70,411.44 L 463.88,415.63 L 457.68,418.75 L 454.77,420.47 L 449.05,424.02 L 446.37,425.96 L 441.12,429.96 L 438.67,432.12 L 433.89,436.56 L 431.67,438.94 L 427.35,443.83 L 425.36,446.44 L 421.49,451.78 L 419.72,454.63 L 416.30,460.43 L 414.75,463.50 L 413.41,466.52 L 412.45,468.97 L 411.96,470.35 L 409.99,476.21 L 409.11,479.25 L 408.25,482.28 L 407.88,483.72 L 407.17,486.55 L 406.89,487.81 L 406.39,490.23 L 406.24,491.22 L 406.00,493.03 L 406.00,493.65 L 405.77,495.31 L 405.43,496.00 L 405.22,496.00 L 404.87,495.80 L 404.44,495.46 L 404.14,495.20 L 403.48,494.62 L 403.07,494.25 L 402.19,493.44 L 401.68,492.95 L 400.60,491.92 L 399.98,491.34 L 398.72,490.11 L 398.02,489.44 L 395.06,486.54 L 393.36,484.86 L 389.84,481.37 L 387.91,479.44 L 383.94,475.47 L 381.85,473.35 L 377.58,469.04 L 375.38,466.81 L 370.94,462.30 L 368.70,460.01 L 359.73,450.83 L 355.49,446.45 L 351.31,442.13 L 349.35,440.09 L 345.53,436.10 L 343.79,434.27 L 340.45,430.74 L 339.00,429.20 L 336.27,426.27 L 335.18,425.08 L 334.14,423.93 L 333.69,423.43 L 332.85,422.49 L 332.52,422.10 L 331.90,421.38 L 331.69,421.11 L 331.31,420.62 L 331.22,420.47 L 328.56,415.73 L 326.98,412.42 L 326.29,410.70 L 324.99,407.23 L 324.44,405.45 L 323.42,401.88 L 323.02,400.06 L 322.29,396.43 L 322.04,394.61 L 321.62,390.97 L 321.52,389.16 L 321.42,385.56 L 321.49,383.80 L 321.71,380.29 L 321.95,378.59 L 323.59,370.28 L 325.14,365.14 L 326.18,362.66 L 328.47,357.73 L 329.94,355.23 L 331.47,352.71 L 332.32,351.42 L 334.09,348.81 L 335.07,347.47 L 339.76,341.94 L 343.32,338.54 L 345.28,336.99 L 349.32,334.00 L 351.48,332.68 L 355.89,330.15 L 358.19,329.08 L 362.87,327.07 L 365.27,326.27 L 370.11,324.82 L 372.55,324.33 L 377.44,323.49 L 379.87,323.32 L 384.71,323.14 L 387.08,323.32 L 395.05,324.10 L 399.74,324.82 L 401.88,325.35 L 406.07,326.56 L 408.10,327.42 L 412.15,329.33 L 414.26,330.64 L 416.38,332.00 L 417.48,332.78 L 419.72,334.41 L 420.90,335.34 L 423.29,337.27 L 424.57,338.35 L 427.17,340.61 L 428.56,341.86 L 431.42,344.47 L 432.95,345.92 L 436.10,348.91 L 437.80,350.55 L 441.29,353.95 L 443.18,355.81 L 447.05,359.64 L 449.15,361.74 L 474.81,387.29 L 479.15,386.08 L 484.47,384.63 L 487.67,383.81 L 489.15,383.47 L 494.84,382.25 L 497.64,381.84 L 500.46,381.45 L 501.93,381.29 L 504.95,381.00 L 506.60,380.89 L 509.98,380.67 L 511.87,380.58 L 515.79,380.41 L 518.00,380.33 L 525.01,380.18 L 529.33,380.19 L 531.25,380.24 L 534.94,380.39 L 536.50,380.51 L 539.40,380.78 L 540.50,380.96 L 546.32,381.92 L 548.07,382.20 L 548.78,382.31 L 550.09,382.52 L 550.50,382.58 L 550.93,382.29 L 550.84,381.99 L 550.72,381.77 L 550.42,381.29 L 550.18,380.97 L 549.65,380.27 L 549.29,379.84 L 548.50,378.92 L 548.01,378.36 L 546.95,377.18 L 546.31,376.49 L 544.95,375.03 L 544.15,374.19 L 542.48,372.44 L 541.52,371.44 L 539.52,369.37 L 538.38,368.20 L 536.01,365.79 L 534.69,364.45 L 531.95,361.67 L 530.43,360.13 L 527.29,356.97 L 525.56,355.24 L 522.00,351.67 L 520.05,349.72 L 516.05,345.72 L 513.88,343.55 L 509.41,339.10 L 507.00,336.69 L 498.44,328.17 L 493.22,322.99 L 490.84,320.63 L 486.22,316.07 L 484.12,314.00 L 480.04,310.00 L 478.19,308.20 L 474.60,304.72 L 472.97,303.16 L 469.81,300.15 L 468.38,298.81 L 465.59,296.22 L 464.33,295.07 L 461.86,292.86 L 460.73,291.88 L 458.54,289.99 L 457.52,289.16 L 455.53,287.55 L 454.59,286.84 L 450.99,284.19 L 449.29,283.09 L 445.91,281.03 L 444.15,280.08 L 440.54,278.20 L 438.50,277.20 L 433.27,274.74 L 429.92,273.28 L 428.27,272.63 L 421.76,270.22 L 418.40,269.27 L 415.02,268.35 L 413.26,267.94 L 409.68,267.16 L 407.78,266.81 L 403.92,266.13 L 401.85,265.82 L 397.61,265.22 L 395.32,264.94 L 385.73,264.30 M 504.14,434.50 L 504.62,436.57 L 505.02,438.28 L 505.24,439.23 L 506.15,443.21 L 506.55,445.00 L 507.95,450.14 L 509.09,453.53 L 509.76,455.20 L 511.18,458.51 L 511.98,460.14 L 513.64,463.37 L 514.56,464.95 L 518.48,471.16 L 520.75,474.07 L 525.50,479.76 L 528.14,482.37 L 533.59,487.42 L 536.54,489.66 L 542.56,493.93 L 545.75,495.74 L 548.96,497.48 L 550.60,498.27 L 553.90,499.77 L 555.58,500.42 L 558.96,501.66 L 560.67,502.18 L 564.10,503.15 L 565.84,503.52 L 572.13,504.93 L 573.98,505.36 L 574.73,505.54 L 576.09,505.87 L 576.50,505.98 L 579.50,506.80 L 576.06,506.90 L 571.42,507.41 L 567.96,508.12 L 566.10,508.63 L 562.31,509.77 L 560.34,510.47 L 556.36,511.97 L 554.36,512.83 L 550.34,514.62 L 548.37,515.60 L 544.48,517.62 L 542.62,518.70 L 538.99,520.89 L 537.32,522.03 L 534.10,524.32 L 532.70,525.49 L 527.60,530.21 L 524.34,533.71 L 522.80,535.61 L 519.78,539.50 L 518.38,541.54 L 515.67,545.69 L 514.45,547.83 L 512.10,552.15 L 511.08,554.33 L 509.15,558.70 L 508.37,560.88 L 506.93,565.20 L 506.41,567.31 L 505.52,571.47 L 505.29,573.46 L 504.90,576.37 L 504.66,577.48 L 504.41,578.53 L 504.29,578.94 L 504.04,579.70 L 503.92,579.96 L 503.69,580.39 L 503.58,580.48 L 503.39,580.55 L 503.31,580.43 L 503.16,580.09 L 503.11,579.76 L 503.04,578.98 L 503.03,578.41 L 502.85,576.22 L 502.57,574.42 L 502.37,573.40 L 501.39,569.00 L 500.72,566.59 L 499.28,561.71 L 498.48,559.41 L 497.67,557.15 L 497.26,556.12 L 496.44,554.13 L 496.04,553.27 L 492.89,547.25 L 490.53,543.36 L 489.23,541.49 L 486.54,537.81 L 485.08,536.05 L 482.09,532.58 L 480.48,530.94 L 477.21,527.72 L 475.47,526.21 L 471.94,523.27 L 470.09,521.90 L 466.32,519.24 L 464.35,518.03 L 460.37,515.69 L 458.31,514.65 L 455.51,513.38 L 453.34,512.50 L 452.15,512.07 L 447.15,510.34 L 444.59,509.59 L 442.05,508.87 L 440.83,508.55 L 438.45,507.96 L 437.37,507.73 L 435.30,507.32 L 434.43,507.19 L 432.81,507.00 L 432.22,507.00 L 430.55,506.95 L 429.78,506.87 L 429.57,506.81 L 429.27,506.68 L 429.28,506.59 L 429.42,506.40 L 429.65,506.29 L 430.22,506.05 L 430.67,505.92 L 431.66,505.64 L 432.32,505.49 L 433.73,505.18 L 434.59,505.01 L 436.40,504.66 L 437.46,504.48 L 444.90,502.75 L 449.85,501.18 L 452.28,500.21 L 457.13,498.13 L 459.49,496.91 L 464.16,494.38 L 466.40,492.95 L 470.82,490.00 L 472.90,488.39 L 476.98,485.08 L 478.87,483.30 L 482.55,479.68 L 484.20,477.77 L 487.39,473.88 L 488.77,471.86 L 491.57,467.43 L 493.35,464.27 L 494.19,462.61 L 497.39,455.84 L 498.69,452.42 L 499.93,449.01 L 500.46,447.35 L 501.44,444.06 L 501.82,442.50 L 502.50,439.44 L 502.72,438.03 L 503.07,435.30 L 503.10,434.09 L 503.21,430.50 Z" fill="rgb(15,154,37)"/>
<path d="M 0.00,512.00 L 0.00,0.00 L 512.00,0.00 L 1024.00,0.00 L 1024.00,512.00 L 1024.00,1024.00 L 512.00,1024.00 L 0.00,1024.00 L 0.00,512.00 M 557.50,923.62 L 564.09,922.82 L 576.87,920.90 L 583.20,919.89 L 595.51,917.52 L 601.62,916.28 L 613.55,913.45 L 619.47,911.97 L 631.08,908.65 L 636.86,906.93 L 648.24,903.09 L 653.90,901.11 L 665.11,896.74 L 670.71,894.49 L 681.83,889.57 L 698.50,881.53 L 703.57,878.95 L 713.37,873.64 L 718.21,870.95 L 727.59,865.39 L 732.23,862.58 L 741.25,856.73 L 745.71,853.77 L 754.43,847.60 L 758.75,844.46 L 767.21,837.92 L 771.42,834.60 L 779.69,827.64 L 783.81,824.11 L 791.95,816.70 L 804.07,805.03 L 808.28,800.82 L 816.41,792.20 L 820.42,787.86 L 828.12,778.99 L 831.92,774.52 L 839.20,765.39 L 842.78,760.80 L 849.64,751.42 L 853.01,746.70 L 859.43,737.09 L 862.59,732.25 L 868.58,722.39 L 871.52,717.44 L 877.08,707.35 L 879.80,702.28 L 884.92,691.96 L 887.43,686.78 L 892.11,676.24 L 894.39,670.94 L 898.63,660.19 L 900.69,654.79 L 904.49,643.83 L 906.33,638.32 L 909.67,627.15 L 911.29,621.54 L 914.19,610.17 L 915.58,604.46 L 918.03,592.90 L 919.19,587.09 L 921.18,575.34 L 923.65,557.50 L 923.99,554.68 L 924.49,548.86 L 924.61,547.36 L 924.80,544.19 L 924.89,542.58 L 925.04,539.12 L 925.11,537.34 L 925.22,533.49 L 925.27,531.51 L 925.34,527.19 L 925.37,524.96 L 925.41,520.07 L 925.43,512.00 L 925.43,507.90 L 925.37,500.48 L 925.32,496.89 L 925.16,490.30 L 925.07,487.09 L 924.79,481.11 L 924.63,478.17 L 924.22,472.56 L 923.77,467.00 L 922.38,456.04 L 921.98,453.23 L 921.05,447.38 L 919.41,438.00 L 918.21,431.44 L 915.35,418.47 L 913.85,412.01 L 910.39,399.25 L 908.59,392.89 L 904.53,380.35 L 902.43,374.11 L 897.80,361.81 L 895.41,355.69 L 890.21,343.65 L 887.54,337.67 L 881.78,325.90 L 878.83,320.06 L 872.52,308.59 L 869.29,302.90 L 862.45,291.74 L 858.96,286.20 L 851.59,275.38 L 847.84,270.01 L 839.95,259.53 L 835.95,254.33 L 827.56,244.22 L 823.31,239.21 L 814.43,229.48 L 809.93,224.67 L 800.57,215.34 L 795.83,210.73 L 786.00,201.82 L 781.02,197.41 L 770.74,188.94 L 754.80,176.74 L 748.29,171.99 L 734.82,163.08 L 728.02,158.73 L 714.02,150.63 L 706.96,146.68 L 692.49,139.40 L 685.20,135.87 L 670.31,129.45 L 662.82,126.35 L 647.59,120.81 L 639.93,118.15 L 624.40,113.51 L 616.60,111.31 L 600.84,107.60 L 577.00,103.10 L 574.04,102.64 L 568.60,101.84 L 565.94,101.46 L 560.93,100.81 L 555.99,100.21 L 546.48,99.40 L 544.06,99.23 L 539.05,98.97 L 536.49,98.86 L 531.04,98.70 L 528.24,98.63 L 522.13,98.54 L 512.00,98.50 L 508.38,98.50 L 501.87,98.55 L 498.71,98.58 L 492.96,98.70 L 490.16,98.77 L 484.95,98.97 L 482.39,99.09 L 477.52,99.40 L 472.68,99.75 L 463.10,100.81 L 460.64,101.11 L 455.47,101.83 L 447.14,103.09 L 441.72,103.94 L 430.99,105.97 L 425.65,107.03 L 415.07,109.46 L 409.80,110.73 L 399.39,113.56 L 394.20,115.02 L 383.95,118.24 L 378.85,119.90 L 368.78,123.50 L 363.76,125.35 L 353.88,129.33 L 348.96,131.36 L 339.27,135.70 L 334.44,137.92 L 324.95,142.62 L 320.23,145.01 L 310.95,150.06 L 306.34,152.63 L 297.28,158.02 L 292.78,160.76 L 283.94,166.48 L 279.55,169.38 L 270.96,175.43 L 266.69,178.50 L 258.33,184.86 L 254.19,188.08 L 246.09,194.75 L 242.07,198.12 L 234.23,205.09 L 230.35,208.61 L 222.78,215.88 L 219.03,219.54 L 211.74,227.09 L 208.13,230.89 L 201.13,238.71 L 197.66,242.65 L 190.96,250.74 L 187.64,254.81 L 181.24,263.15 L 178.07,267.36 L 171.98,275.95 L 168.98,280.27 L 163.21,289.11 L 160.37,293.55 L 154.93,302.62 L 152.25,307.18 L 147.15,316.47 L 144.64,321.14 L 139.89,330.64 L 137.55,335.42 L 133.15,345.14 L 131.00,350.02 L 126.96,359.93 L 124.99,364.91 L 121.33,375.01 L 119.55,380.09 L 116.26,390.38 L 114.67,395.54 L 111.78,406.00 L 110.38,411.25 L 107.89,421.88 L 104.60,438.00 L 104.00,441.27 L 102.96,447.35 L 102.47,450.34 L 101.63,456.00 L 100.84,461.60 L 99.78,472.52 L 99.56,475.30 L 99.21,481.07 L 99.06,484.01 L 98.84,490.28 L 98.74,493.49 L 98.63,500.47 L 98.57,512.00 L 98.57,517.08 L 98.71,526.52 L 98.81,531.14 L 99.17,539.85 L 99.37,544.13 L 99.97,552.33 L 100.30,556.38 L 101.16,564.28 L 101.62,568.21 L 102.77,576.04 L 103.39,579.96 L 104.86,587.94 L 105.63,591.97 L 107.45,600.32 L 110.59,613.50 L 111.90,618.75 L 114.82,629.12 L 116.34,634.29 L 119.66,644.49 L 121.38,649.56 L 125.09,659.58 L 126.99,664.57 L 131.08,674.40 L 133.17,679.29 L 137.63,688.92 L 139.91,693.71 L 144.73,703.14 L 147.18,707.83 L 152.34,717.04 L 154.97,721.62 L 160.47,730.60 L 163.27,735.07 L 169.10,743.83 L 172.06,748.17 L 178.21,756.69 L 181.32,760.92 L 187.79,769.19 L 191.06,773.29 L 197.82,781.30 L 201.23,785.28 L 208.29,793.02 L 211.85,796.86 L 219.18,804.34 L 222.88,808.04 L 230.48,815.23 L 234.31,818.79 L 242.18,825.69 L 246.14,829.10 L 254.25,835.70 L 258.34,838.97 L 266.69,845.26 L 270.90,848.37 L 279.49,854.35 L 283.81,857.30 L 292.61,862.95 L 297.04,865.74 L 306.06,871.06 L 310.60,873.68 L 319.82,878.66 L 324.45,881.11 L 333.86,885.74 L 338.59,888.01 L 348.19,892.29 L 353.01,894.38 L 362.77,898.29 L 367.68,900.20 L 377.61,903.73 L 382.59,905.45 L 392.68,908.60 L 397.74,910.13 L 407.96,912.89 L 413.09,914.22 L 423.45,916.58 L 428.65,917.71 L 439.13,919.66 L 444.39,920.58 L 454.99,922.11 L 471.00,923.94 L 472.58,924.09 L 475.78,924.39 L 477.36,924.53 L 480.30,924.81 L 481.70,924.94 L 484.04,925.17 L 484.57,925.22 L 485.46,925.30 L 486.50,925.40 L 487.05,925.46 L 488.64,925.54 L 489.50,925.58 L 491.64,925.63 L 492.77,925.66 L 495.38,925.68 L 496.74,925.69 L 499.75,925.69 L 501.30,925.68 L 504.62,925.65 L 506.32,925.64 L 509.88,925.59 L 513.49,925.53 L 521.09,925.36 L 524.89,925.26 L 532.41,925.02 L 536.09,924.90 L 542.88,924.61 L 544.51,924.53 L 547.51,924.37 L 548.96,924.30 L 551.57,924.13 L 552.81,924.05 L 554.94,923.88 L 555.93,923.80 M 604.50,745.39 L 601.79,744.97 L 595.82,743.64 L 592.79,742.91 L 586.52,741.05 L 583.40,740.08 L 577.34,737.85 L 569.00,734.27 L 566.98,733.30 L 563.23,731.32 L 561.38,730.29 L 557.70,727.97 L 555.83,726.74 L 551.82,723.75 L 550.78,722.94 L 548.58,721.15 L 547.46,720.22 L 545.04,718.14 L 543.81,717.07 L 541.14,714.67 L 539.76,713.43 L 536.79,710.67 L 535.26,709.24 L 531.93,706.07 L 530.22,704.44 L 526.49,700.83 L 524.58,698.96 L 520.40,694.87 L 518.25,692.75 L 513.59,688.13 L 511.19,685.75 L 505.98,680.55 L 497.50,672.08 L 494.48,669.05 L 488.68,663.22 L 485.83,660.36 L 480.46,654.96 L 477.84,652.33 L 473.03,647.48 L 470.71,645.13 L 466.58,640.95 L 465.59,639.95 L 463.77,638.10 L 462.88,637.20 L 461.27,635.55 L 460.49,634.76 L 459.10,633.34 L 458.43,632.66 L 457.28,631.48 L 456.74,630.92 L 455.84,629.99 L 455.43,629.56 L 454.80,628.90 L 454.52,628.61 L 454.18,628.23 L 454.00,628.00 L 454.07,628.00 L 454.87,628.12 L 455.36,628.20 L 456.85,628.44 L 457.67,628.58 L 459.66,628.92 L 463.00,629.50 L 464.22,629.72 L 467.45,630.10 L 469.16,630.28 L 473.06,630.57 L 485.50,630.98 L 487.60,630.98 L 491.48,630.91 L 493.38,630.86 L 496.95,630.68 L 500.46,630.46 L 507.10,629.63 L 508.77,629.38 L 512.18,628.76 L 513.91,628.42 L 517.54,627.61 L 519.39,627.18 L 523.36,626.16 L 529.85,624.38 L 530.11,624.31 L 530.72,624.36 L 531.06,624.44 L 531.93,624.87 L 532.42,625.15 L 533.69,626.09 L 534.39,626.63 L 536.20,628.19 L 536.69,628.63 L 537.80,629.63 L 538.37,630.16 L 539.66,631.37 L 540.33,632.00 L 541.82,633.41 L 542.59,634.15 L 544.29,635.80 L 545.17,636.65 L 547.10,638.54 L 548.10,639.51 L 550.28,641.66 L 551.41,642.77 L 553.86,645.19 L 557.85,649.14 L 559.61,650.89 L 563.06,654.29 L 564.77,655.97 L 568.05,659.18 L 569.66,660.75 L 572.68,663.69 L 574.16,665.12 L 576.86,667.71 L 578.16,668.96 L 580.44,671.13 L 581.53,672.16 L 583.33,673.84 L 584.16,674.61 L 585.40,675.72 L 586.53,676.65 L 588.28,677.86 L 592.03,679.99 L 593.93,681.01 L 597.93,682.78 L 599.95,683.61 L 604.11,684.99 L 606.21,685.63 L 610.46,686.60 L 612.59,687.04 L 616.85,687.59 L 618.97,687.81 L 623.15,687.92 L 625.22,687.92 L 629.24,687.58 L 635.00,686.54 L 636.91,686.06 L 640.36,685.08 L 642.03,684.59 L 645.08,683.54 L 646.56,683.01 L 649.30,681.85 L 650.64,681.26 L 653.15,679.94 L 654.39,679.25 L 656.77,677.72 L 657.95,676.93 L 660.28,675.13 L 661.45,674.20 L 663.82,672.10 L 667.53,668.55 L 668.76,667.31 L 670.95,664.97 L 671.99,663.82 L 673.84,661.59 L 674.72,660.48 L 676.29,658.24 L 677.04,657.11 L 678.38,654.76 L 679.03,653.56 L 680.21,650.99 L 680.78,649.67 L 681.85,646.78 L 682.38,645.28 L 683.40,641.96 L 684.93,636.38 L 685.11,635.72 L 685.38,634.06 L 685.51,633.18 L 685.71,631.18 L 685.88,629.12 L 685.96,624.50 L 685.96,622.19 L 685.71,617.82 L 685.62,616.79 L 685.38,614.94 L 684.93,612.62 L 684.29,610.13 L 683.08,605.86 L 682.46,603.82 L 681.05,600.11 L 680.29,598.29 L 678.34,594.70 L 677.81,593.79 L 676.58,591.91 L 675.93,590.96 L 674.45,588.96 L 673.68,587.94 L 671.91,585.76 L 670.99,584.64 L 668.88,582.23 L 667.79,580.99 L 665.31,578.29 L 664.02,576.90 L 661.13,573.86 L 659.63,572.29 L 656.27,568.84 L 654.54,567.07 L 650.69,563.17 L 648.69,561.16 L 644.30,556.75 L 637.05,549.51 L 635.21,547.66 L 631.79,544.25 L 630.12,542.60 L 627.06,539.55 L 625.57,538.07 L 622.84,535.37 L 621.52,534.06 L 619.11,531.69 L 617.94,530.54 L 615.83,528.48 L 614.81,527.48 L 612.97,525.71 L 612.09,524.86 L 610.52,523.37 L 609.77,522.66 L 608.44,521.42 L 607.81,520.84 L 606.71,519.85 L 606.19,519.38 L 605.30,518.62 L 604.88,518.27 L 604.18,517.72 L 603.85,517.46 L 603.32,517.11 L 602.83,516.79 L 602.29,516.67 L 602.00,517.13 L 602.00,517.72 L 601.79,519.43 L 601.65,520.36 L 601.20,522.61 L 600.95,523.79 L 600.31,526.42 L 599.97,527.76 L 599.18,530.61 L 598.36,533.47 L 596.50,539.14 L 596.03,540.50 L 595.08,542.99 L 593.72,546.24 L 592.42,549.05 L 589.65,554.15 L 588.22,556.63 L 585.00,561.34 L 583.31,563.67 L 579.42,568.29 L 578.39,569.46 L 576.17,571.83 L 572.56,575.50 L 569.88,578.13 L 564.45,582.74 L 561.69,584.94 L 555.85,588.86 L 552.85,590.75 L 546.28,594.17 L 544.58,595.01 L 540.98,596.62 L 535.26,598.98 L 533.78,599.56 L 530.92,600.68 L 529.53,601.23 L 527.07,602.20 L 525.92,602.65 L 524.13,603.36 L 523.73,603.52 L 523.12,603.76 L 522.50,604.02 L 522.10,604.18 L 520.91,604.56 L 520.25,604.76 L 518.61,605.18 L 517.74,605.40 L 515.75,605.85 L 514.71,606.08 L 512.44,606.55 L 510.12,607.02 L 505.02,607.91 L 497.39,609.06 L 495.92,609.25 L 492.70,609.49 L 491.06,609.59 L 487.56,609.65 L 484.01,609.67 L 476.42,609.20 L 472.61,608.88 L 465.05,607.77 L 463.19,607.46 L 459.60,606.72 L 454.50,605.47 L 452.85,605.01 L 449.60,604.14 L 448.85,603.94 L 447.59,603.61 L 446.24,603.28 L 445.61,603.14 L 444.48,602.66 L 443.43,601.88 L 443.28,601.64 L 442.59,601.26 L 441.36,601.00 L 441.07,601.00 L 440.01,600.69 L 439.41,600.49 L 437.80,599.83 L 436.94,599.46 L 434.91,598.51 L 433.85,598.01 L 431.53,596.84 L 429.16,595.63 L 424.09,592.81 L 417.00,588.53 L 416.28,588.06 L 414.34,586.58 L 413.81,586.15 L 412.61,585.14 L 411.97,584.61 L 410.55,583.36 L 409.81,582.71 L 408.15,581.21 L 407.29,580.43 L 405.37,578.66 L 404.38,577.74 L 402.19,575.68 L 401.06,574.61 L 398.57,572.23 L 397.29,571.01 L 394.48,568.30 L 393.04,566.90 L 389.89,563.85 L 388.28,562.27 L 384.78,558.84 L 382.98,557.08 L 379.10,553.27 L 377.11,551.31 L 372.83,547.08 L 370.64,544.91 L 365.94,540.26 L 363.54,537.87 L 358.40,532.77 L 350.18,524.59 L 346.10,520.52 L 338.21,512.64 L 334.32,508.74 L 326.92,501.33 L 323.31,497.70 L 316.59,490.92 L 314.95,489.28 L 311.85,486.14 L 310.32,484.60 L 307.45,481.68 L 306.04,480.25 L 303.41,477.58 L 302.12,476.27 L 299.76,473.86 L 298.62,472.69 L 296.55,470.56 L 295.55,469.54 L 293.79,467.72 L 292.95,466.85 L 291.52,465.35 L 290.85,464.65 L 289.78,463.51 L 289.29,462.98 L 288.59,462.21 L 287.99,461.50 L 286.61,459.57 L 283.62,455.03 L 282.13,452.70 L 279.25,447.90 L 277.86,445.54 L 275.50,441.20 L 274.96,440.18 L 274.05,438.34 L 273.01,436.00 L 272.57,434.92 L 271.85,433.12 L 271.51,432.27 L 270.94,430.85 L 270.67,430.19 L 270.24,429.09 L 270.03,428.57 L 269.69,427.71 L 269.37,426.88 L 268.89,425.58 L 268.15,423.50 L 267.34,421.19 L 265.98,416.32 L 265.35,413.84 L 264.35,408.67 L 263.89,406.05 L 263.26,400.62 L 262.98,397.88 L 262.70,392.24 L 262.61,389.40 L 262.69,383.59 L 262.78,380.67 L 263.23,374.75 L 263.50,371.78 L 264.31,365.78 L 265.94,356.75 L 266.09,356.01 L 266.66,354.01 L 266.98,352.94 L 267.81,350.42 L 268.26,349.12 L 269.28,346.29 L 269.81,344.85 L 270.94,341.90 L 271.52,340.43 L 272.69,337.57 L 273.27,336.16 L 274.40,333.58 L 274.95,332.34 L 275.96,330.23 L 277.26,327.81 L 277.56,327.30 L 278.40,325.92 L 278.84,325.18 L 279.85,323.50 L 282.93,318.31 L 283.20,317.85 L 283.93,316.78 L 284.32,316.23 L 285.26,314.99 L 286.24,313.72 L 288.74,310.78 L 290.06,309.27 L 293.07,306.01 L 294.62,304.37 L 297.91,301.01 L 299.57,299.34 L 302.94,296.10 L 304.61,294.52 L 307.83,291.61 L 309.40,290.22 L 312.26,287.87 L 312.94,287.32 L 314.20,286.38 L 315.90,285.19 L 318.91,283.25 L 325.21,279.73 L 328.39,278.04 L 334.96,275.04 L 338.28,273.61 L 345.04,271.15 L 348.43,269.99 L 355.29,268.09 L 358.72,267.22 L 365.58,265.91 L 369.00,265.33 L 375.78,264.63 L 379.14,264.36 L 385.73,264.30 L 395.32,264.94 L 397.61,265.22 L 401.85,265.82 L 403.92,266.13 L 407.78,266.81 L 409.68,267.16 L 413.26,267.94 L 415.02,268.35 L 418.40,269.27 L 421.76,270.22 L 428.27,272.63 L 429.92,273.28 L 433.27,274.74 L 438.50,277.20 L 440.54,278.20 L 444.15,280.08 L 445.91,281.03 L 449.29,283.09 L 450.99,284.19 L 454.59,286.84 L 455.53,287.55 L 457.52,289.16 L 458.54,289.99 L 460.73,291.88 L 461.86,292.86 L 464.33,295.07 L 465.59,296.22 L 468.38,298.81 L 469.81,300.15 L 472.97,303.16 L 474.60,304.72 L 478.19,308.20 L 480.04,310.00 L 484.12,314.00 L 486.22,316.07 L 490.84,320.63 L 493.22,322.99 L 498.44,328.17 L 507.00,336.69 L 509.41,339.10 L 513.88,343.55 L 516.05,345.72 L 520.05,349.72 L 522.00,351.67 L 525.56,355.24 L 527.29,356.97 L 530.43,360.13 L 531.95,361.67 L 534.69,364.45 L 536.01,365.79 L 538.38,368.20 L 539.52,369.37 L 541.52,371.44 L 542.48,372.44 L 544.15,374.19 L 544.95,375.03 L 546.31,376.49 L 546.95,377.18 L 548.01,378.36 L 548.50,378.92 L 549.29,379.84 L 549.65,380.27 L 550.18,380.97 L 550.42,381.29 L 550.72,381.77 L 550.84,381.99 L 550.93,382.29 L 550.50,382.58 L 550.09,382.52 L 548.78,382.31 L 548.07,382.20 L 546.32,381.92 L 540.50,380.96 L 539.40,380.78 L 536.50,380.51 L 534.94,380.39 L 531.25,380.24 L 529.33,380.19 L 525.01,380.18 L 518.00,380.33 L 515.79,380.41 L 511.87,380.58 L 509.98,380.67 L 506.60,380.89 L 504.95,381.00 L 501.93,381.29 L 500.46,381.45 L 497.64,381.84 L 494.84,382.25 L 489.15,383.47 L 487.67,383.81 L 484.47,384.63 L 479.15,386.08 L 474.81,387.29 L 449.15,361.74 L 447.05,359.64 L 443.18,355.81 L 441.29,353.95 L 437.80,350.55 L 436.10,348.91 L 432.95,345.92 L 431.42,344.47 L 428.56,341.86 L 427.17,340.61 L 424.57,338.35 L 423.29,337.27 L 420.90,335.34 L 419.72,334.41 L 417.48,332.78 L 416.38,332.00 L 414.26,330.64 L 412.15,329.33 L 408.10,327.42 L 406.07,326.56 L 401.88,325.35 L 399.74,324.82 L 395.05,324.10 L 387.08,323.32 L 384.71,323.14 L 379.87,323.32 L 377.44,323.49 L 372.55,324.33 L 370.11,324.82 L 365.27,326.27 L 362.87,327.07 L 358.19,329.08 L 355.89,330.15 L 351.48,332.68 L 349.32,334.00 L 345.28,336.99 L 343.32,338.54 L 339.76,341.94 L 335.07,347.47 L 334.09,348.81 L 332.32,351.42 L 331.47,352.71 L 329.94,355.23 L 328.47,357.73 L 326.18,362.66 L 325.14,365.14 L 323.59,370.28 L 321.95,378.59 L 321.71,380.29 L 321.49,383.80 L 321.42,385.56 L 321.52,389.16 L 321.62,390.97 L 322.04,394.61 L 322.29,396.43 L 323.02,400.06 L 323.42,401.88 L 324.44,405.45 L 324.99,407.23 L 326.29,410.70 L 326.98,412.42 L 328.56,415.73 L 331.22,420.47 L 331.31,420.62 L 331.69,421.11 L 331.90,421.38 L 332.52,422.10 L 332.85,422.49 L 333.69,423.43 L 334.14,423.93 L 335.18,425.08 L 336.27,426.27 L 339.00,429.20 L 340.45,430.74 L 343.79,434.27 L 345.53,436.10 L 349.35,440.09 L 351.31,442.13 L 355.49,446.45 L 359.73,450.83 L 368.70,460.01 L 370.94,462.30 L 375.38,466.81 L 377.58,469.04 L 381.85,473.35 L 383.94,475.47 L 387.91,479.44 L 389.84,481.37 L 393.36,484.86 L 395.06,486.54 L 398.02,489.44 L 398.72,490.11 L 399.98,491.34 L 400.60,491.92 L 401.68,492.95 L 402.19,493.44 L 403.07,494.25 L 403.48,494.62 L 404.14,495.20 L 404.44,495.46 L 404.87,495.80 L 405.22,496.00 L 405.43,496.00 L 405.77,495.31 L 406.00,493.65 L 406.00,493.03 L 406.24,491.22 L 406.39,490.23 L 406.89,487.81 L 407.17,486.55 L 407.88,483.72 L 408.25,482.28 L 409.11,479.25 L 409.99,476.21 L 411.96,470.35 L 412.45,468.97 L 413.41,466.52 L 414.75,463.50 L 416.30,460.43 L 419.72,454.63 L 421.49,451.78 L 425.36,446.44 L 427.35,443.83 L 431.67,438.94 L 433.89,436.56 L 438.67,432.12 L 441.12,429.96 L 446.37,425.96 L 449.05,424.02 L 454.77,420.47 L 457.68,418.75 L 463.88,415.63 L 473.70,411.44 L 475.66,410.69 L 479.24,409.39 L 480.98,408.76 L 484.22,407.67 L 487.40,406.63 L 493.23,405.08 L 496.12,404.38 L 502.05,403.34 L 503.58,403.10 L 506.81,402.68 L 512.03,402.11 L 513.52,401.96 L 516.79,401.81 L 518.46,401.75 L 522.03,401.78 L 525.65,401.84 L 533.39,402.46 L 537.27,402.84 L 544.94,404.04 L 546.81,404.37 L 550.42,405.13 L 555.50,406.40 L 556.71,406.74 L 559.38,407.62 L 560.74,408.09 L 563.66,409.20 L 566.62,410.37 L 572.95,413.23 L 576.13,414.73 L 582.39,418.02 L 591.00,423.11 L 591.27,423.29 L 592.12,423.95 L 592.60,424.33 L 593.82,425.38 L 594.48,425.96 L 596.06,427.37 L 596.90,428.12 L 598.80,429.88 L 599.80,430.79 L 602.01,432.86 L 603.15,433.93 L 605.63,436.28 L 606.91,437.49 L 609.64,440.10 L 611.04,441.44 L 613.99,444.29 L 615.50,445.74 L 618.66,448.80 L 620.26,450.35 L 623.58,453.59 L 626.95,456.87 L 634.09,463.88 L 637.71,467.44 L 645.21,474.84 L 648.98,478.57 L 656.62,486.17 L 660.44,489.98 L 668.02,497.57 L 671.79,501.34 L 679.11,508.71 L 682.71,512.35 L 689.56,519.30 L 692.90,522.70 L 699.07,529.03 L 700.56,530.56 L 703.37,533.47 L 704.75,534.89 L 707.33,537.58 L 708.58,538.89 L 710.89,541.32 L 712.01,542.50 L 714.03,544.65 L 715.00,545.68 L 716.70,547.53 L 717.51,548.41 L 718.86,549.93 L 719.49,550.64 L 720.48,551.80 L 721.52,553.11 L 722.81,554.90 L 725.31,558.77 L 726.54,560.75 L 728.89,564.91 L 730.04,567.03 L 732.21,571.40 L 733.27,573.61 L 735.21,578.10 L 736.16,580.36 L 737.85,584.90 L 738.66,587.17 L 740.06,591.66 L 740.72,593.89 L 741.80,598.26 L 743.01,604.57 L 743.21,605.91 L 743.53,609.05 L 743.68,610.68 L 743.89,614.28 L 744.07,617.95 L 744.10,625.93 L 744.08,627.92 L 743.95,631.85 L 743.88,633.78 L 743.65,637.47 L 743.53,639.27 L 743.20,642.55 L 742.58,646.82 L 742.15,649.21 L 741.06,653.95 L 740.47,656.31 L 739.10,660.96 L 738.38,663.27 L 736.73,667.82 L 735.88,670.07 L 733.97,674.50 L 732.98,676.70 L 730.82,681.01 L 729.71,683.14 L 727.30,687.30 L 726.07,689.37 L 723.43,693.37 L 722.09,695.36 L 719.23,699.20 L 717.77,701.10 L 714.69,704.76 L 713.13,706.57 L 709.85,710.04 L 708.19,711.75 L 704.72,715.02 L 702.96,716.63 L 699.30,719.68 L 697.45,721.17 L 693.62,723.99 L 691.69,725.37 L 687.69,727.95 L 685.67,729.20 L 681.52,731.52 L 675.14,734.70 L 673.28,735.55 L 669.98,737.02 L 668.39,737.72 L 665.49,738.91 L 662.66,740.05 L 657.53,741.73 L 656.23,742.11 L 653.57,742.79 L 652.21,743.12 L 649.31,743.72 L 647.81,744.02 L 644.50,744.59 L 638.90,745.47 L 635.85,745.92 L 630.10,746.49 L 627.26,746.71 L 621.71,746.82 L 618.94,746.81 L 613.32,746.45 L 610.47,746.21 M 505.29,573.46 L 505.52,571.47 L 506.41,567.31 L 506.93,565.20 L 508.37,560.88 L 509.15,558.70 L 511.08,554.33 L 512.10,552.15 L 514.45,547.83 L 515.67,545.69 L 518.38,541.54 L 519.78,539.50 L 522.80,535.61 L 524.34,533.71 L 527.60,530.21 L 532.70,525.49 L 534.10,524.32 L 537.32,522.03 L 538.99,520.89 L 542.62,518.70 L 544.48,517.62 L 548.37,515.60 L 550.34,514.62 L 554.36,512.83 L 556.36,511.97 L 560.34,510.47 L 562.31,509.77 L 566.10,508.63 L 567.96,508.12 L 571.42,507.41 L 576.06,506.90 L 579.50,506.80 L 576.50,505.98 L 576.09,505.87 L 574.73,505.54 L 573.98,505.36 L 572.13,504.93 L 565.84,503.52 L 564.10,503.15 L 560.67,502.18 L 558.96,501.66 L 555.58,500.42 L 553.90,499.77 L 550.60,498.27 L 548.96,497.48 L 545.75,495.74 L 542.56,493.93 L 536.54,489.66 L 533.59,487.42 L 528.14,482.37 L 525.50,479.76 L 520.75,474.07 L 518.48,471.16 L 514.56,464.95 L 513.64,463.37 L 511.98,460.14 L 511.18,458.51 L 509.76,455.20 L 509.09,453.53 L 507.95,450.14 L 506.55,445.00 L 506.15,443.21 L 505.24,439.23 L 505.02,438.28 L 504.62,436.57 L 504.14,434.50 L 503.21,430.50 L 503.10,434.09 L 503.07,435.30 L 502.72,438.03 L 502.50,439.44 L 501.82,442.50 L 501.44,444.06 L 500.46,447.35 L 499.93,449.01 L 498.69,452.42 L 497.39,455.84 L 494.19,462.61 L 493.35,464.27 L 491.57,467.43 L 488.77,471.86 L 487.39,473.88 L 484.20,477.77 L 482.55,479.68 L 478.87,483.30 L 476.98,485.08 L 472.90,488.39 L 470.82,490.00 L 466.40,492.95 L 464.16,494.38 L 459.49,496.91 L 457.13,498.13 L 452.28,500.21 L 449.85,501.18 L 444.90,502.75 L 437.46,504.48 L 436.40,504.66 L 434.59,505.01 L 433.73,505.18 L 432.32,505.49 L 431.66,505.64 L 430.67,505.92 L 430.22,506.05 L 429.65,506.29 L 429.42,506.40 L 429.28,506.59 L 429.27,506.68 L 429.57,506.81 L 429.78,506.87 L 430.55,506.95 L 432.22,507.00 L 432.81,507.00 L 434.43,507.19 L 435.30,507.32 L 437.37,507.73 L 438.45,507.96 L 440.83,508.55 L 442.05,508.87 L 444.59,509.59 L 447.15,510.34 L 452.15,512.07 L 453.34,512.50 L 455.51,513.38 L 458.31,514.65 L 460.37,515.69 L 464.35,518.03 L 466.32,519.24 L 470.09,521.90 L 471.94,523.27 L 475.47,526.21 L 477.21,527.72 L 480.48,530.94 L 482.09,532.58 L 485.08,536.05 L 486.54,537.81 L 489.23,541.49 L 490.53,543.36 L 492.89,547.25 L 496.04,553.27 L 496.44,554.13 L 497.26,556.12 L 497.67,557.15 L 498.48,559.41 L 499.28,561.71 L 500.72,566.59 L 501.39,569.00 L 502.37,573.40 L 502.57,574.42 L 502.85,576.22 L 503.03,578.41 L 503.04,578.98 L 503.11,579.76 L 503.16,580.09 L 503.31,580.43 L 503.39,580.55 L 503.58,580.48 L 503.69,580.39 L 503.92,579.96 L 504.04,579.70 L 504.29,578.94 L 504.41,578.53 L 504.66,577.48 L 504.90,576.37 Z" fill="rgb(254,254,254)"/>
</g>
</svg>